<svg xmlns="http://www.w3.org/2000/svg" viewBox="0 0 17.95 17.95"><defs><style>.cls-1{fill:#212121;}</style></defs><title>資產 4socail</title><g id="圖層_2" data-name="圖層 2"><g id="圖層_1-2" data-name="圖層 1"><path class="cls-1" d="M9,6.44A2.53,2.53,0,1,0,11.5,9,2.53,2.53,0,0,0,9,6.44Z"/><path class="cls-1" d="M14.84,0H3.1A3.11,3.11,0,0,0,0,3.1V14.85a3.11,3.11,0,0,0,3.1,3.1H14.85a3.11,3.11,0,0,0,3.1-3.1V3.1A3.12,3.12,0,0,0,14.84,0ZM9,14.15A5.19,5.19,0,1,1,14.15,9,5.19,5.19,0,0,1,9,14.15Zm7.08-11a1.29,1.29,0,0,1-1.29,1.29h0a1.29,1.29,0,0,1-1.29-1.29h0a1.29,1.29,0,0,1,1.29-1.29h0a1.29,1.29,0,0,1,1.29,1.29Z"/></g></g></svg>