<svg xmlns="http://www.w3.org/2000/svg" viewBox="0 0 17.95 17.09"><defs><style>.cls-1{fill:#212121;}</style></defs><title>資產 5socail</title><g id="圖層_2" data-name="圖層 2"><g id="圖層_1-2" data-name="圖層 1"><path class="cls-1" d="M15.67,2.44A9.56,9.56,0,0,0,9.65,0a9.92,9.92,0,0,0-6.92,2A6.29,6.29,0,0,0,1.25,11a8.52,8.52,0,0,0,4.7,3.15c.58.17,1.18.26,1.77.39a.65.65,0,0,1,.58.79c0,.35-.09.7-.12,1.05-.07.69.15.87.79.58a12.32,12.32,0,0,0,1.47-.81,25.19,25.19,0,0,0,5.83-4.67,6.45,6.45,0,0,0,1.68-4.33A6.37,6.37,0,0,0,15.67,2.44ZM5.4,9.63c-.54,0-1.09,0-1.63,0a.48.48,0,0,1-.53-.55q0-1.67,0-3.34c0-.32.12-.53.47-.52s.43.21.43.51c0,.81,0,1.61,0,2.42v.58H5.38c.29,0,.5.12.51.44S5.69,9.62,5.4,9.63Zm1.88-.47a.65.65,0,0,1-.45.44c-.29,0-.44-.19-.43-.5,0-.56,0-1.13,0-1.69s0-1.13,0-1.69c0-.28.1-.47.4-.49a.42.42,0,0,1,.5.45C7.31,6.84,7.32,8,7.29,9.16Zm4,.41a.62.62,0,0,1-.52-.18c-.49-.61-.94-1.26-1.41-1.89-.09-.12-.2-.23-.4-.47,0,.7,0,1.26,0,1.81,0,.16,0,.36-.06.47a.71.71,0,0,1-.48.29A.52.52,0,0,1,8,9.22C8,8,8,6.8,8,5.59c0-.12.17-.34.25-.34a.83.83,0,0,1,.58.2c.5.62,1,1.28,1.44,1.93.07.1.16.18.34.39,0-.65,0-1.15,0-1.66a3.36,3.36,0,0,1,0-.48c0-.28.2-.48.48-.39s.38.27.39.41c0,1.16,0,2.32,0,3.48A.55.55,0,0,1,11.26,9.56ZM14.37,7c.29,0,.51.09.52.42s-.21.44-.5.44H13.18v.89h1.15c.3,0,.55.08.56.44s-.24.46-.54.47H12.81c-.36,0-.57-.16-.57-.55q0-1.67,0-3.34c0-.36.14-.53.51-.53.54,0,1.08,0,1.63,0,.29,0,.51.09.51.43s-.23.43-.51.43h-1.2V7Z"/></g></g></svg>