<svg xmlns="http://www.w3.org/2000/svg" viewBox="0 0 256 110"><defs><style>.cls-1{fill:#fec704;}.cls-2{fill:#e9061f;}.cls-3{fill:#8cae3c;}.cls-4{fill:#fff;}</style></defs><title>資產 1logo</title><g id="圖層_2" data-name="圖層 2"><g id="圖層_1-2" data-name="圖層 1"><rect width="256" height="110"/><path class="cls-1" d="M64.68,74c.21.09.39.16.34.13A1.38,1.38,0,0,0,64.68,74Z"/><path class="cls-1" d="M46.35,50.75a4,4,0,0,0,0-.87Z"/><path class="cls-1" d="M49,36l.12-.23.06-.21Z"/><path class="cls-1" d="M55.21,27.5a2.24,2.24,0,0,1,.32-.44s-.05,0-.13,0A.7.7,0,0,0,55.21,27.5Z"/><path class="cls-1" d="M83.17,21l-.16.06s0,0,0,.07Z"/><path class="cls-1" d="M80.16,78h0C79.85,78,80,78,80.16,78Z"/><path class="cls-1" d="M84.53,26.46c.44-.35.12,0-.12.27a2.16,2.16,0,0,0-.24.34s.13-.11.42-.36C84.43,26.78,85.59,25.57,84.53,26.46Z"/><path class="cls-1" d="M101.84,70.76s.06,0,.21-.11A1.15,1.15,0,0,0,101.84,70.76Z"/><path class="cls-1" d="M109.19,64.17l-.07.07a2.94,2.94,0,0,1-.34.42A5.88,5.88,0,0,0,109.19,64.17Z"/><path class="cls-1" d="M113.56,56.56l-.08.15-.11.28Z"/><path class="cls-1" d="M114.46,51.31a14.69,14.69,0,0,1-.37-1.57c-.09-1,.28,1,.19.38.14-.3-.46-2.28-.47-3.62l.05.31a26.08,26.08,0,0,0-.77-4.06s0,.07,0,0a23.58,23.58,0,0,0-1.88-4.5c.32.39.38.62.33.3-.36-.62,0,.24-.75-1a14.77,14.77,0,0,1-.72-1.47c.26.37.51.74.74,1.12a12.36,12.36,0,0,0-1.36-2l.1,0c-1.23-1.65-1.35-1.56-2.61-3.38l.1.21c-.84-.87-.52-.89-1.48-1.67q-.09-.18-.2-.35a40.31,40.31,0,0,0-3.73-2,26.83,26.83,0,0,1,3.17,1.55,20.4,20.4,0,0,0-2.73-1.48,8.38,8.38,0,0,1,.92.47c-.9-.37-2.05-.91-3.46-1.6.19-.06-.73-.53-1.8-1.05l-1.64-.8-1.28-.53a15,15,0,0,0-4.29-.24c-.73.05-1.46.14-2.21.25a6.41,6.41,0,0,0-2.35.72c.6-.18.37-.07,0,.11s-.73.48-.58.5c-.59.47-.78.69-.85.74l.11-.1-.13.11h0a8.44,8.44,0,0,0-1,1.09c-.06.1-.25.25-.2.31l.38.1.83.21c.31.1.17.08-.26,0a8,8,0,0,0-.86-.15l1.29.3a1.34,1.34,0,0,1,.27.09,2.1,2.1,0,0,0,.65.23c-.2-.12.58,0,1.5.23l-1.27-.37c2.27.36,1.92.6,4.2.93l-.73-.08c1.19.16,4.22.94,5.33,1.25.18.1.41.26-.07.08a26.31,26.31,0,0,1,7.13,4.36l-.2-.09a8.36,8.36,0,0,1,1.22,1s-.19-.1,0,.06a15.28,15.28,0,0,1,1.55,1.4l-.46-.37c1,1,1.62,1.65,1.78,2.61.32,1.06.95,1.83,1.37,2.86-.06,0,0,.31.07.71a2.79,2.79,0,0,1,0,.65,1.91,1.91,0,0,1-.05.34,1,1,0,0,1,0,.17l-.08.25a.77.77,0,0,0,.23.79c.2.22.31.28.38.36h0a4.43,4.43,0,0,1,1.35,3.49,20.11,20.11,0,0,1-.5,4,36.34,36.34,0,0,1-1.49,3.85,21.4,21.4,0,0,1-2.61,4.2c.29-.34.06.14-.25.56s-1.15,1.53-1.19,1.35l.16-.18c-.45.3-1.39,1.34-2.23,2.07v.27c-2.29,1.76-6.16,4.53-7.71,5-.6.36-1.39.7-2,1v-.11A34.1,34.1,0,0,1,86,73l.46-.17c-1.32.27-1.62.62-2.86.81l-.39-.1a39.16,39.16,0,0,1-7.05.18s.11,0,.49,0a23.57,23.57,0,0,1-2.46-.38c-.86-.18-1.52-.35-1.36-.19a30.71,30.71,0,0,0-3.6-1l.22,0a12,12,0,0,1-2.54-.69c-.33-.15-.26-.19.17,0a22,22,0,0,1-2.18-.92l.51.18a16.12,16.12,0,0,0-1.64-.75,8.09,8.09,0,0,1-2-1.49,7.23,7.23,0,0,1-1.34-.84c-.06-.09.17.05.28.12A41,41,0,0,1,57.07,65s-.06-.12-.14-.2c1.23,1.05,2.32,1.8,2.21,1.74.05-.08-1-.86-.08-.35a15.72,15.72,0,0,1-3.25-2.5,1.19,1.19,0,0,1-.09-.14l.1.09c-.19-.22-.38-.4-.54-.58s-.4-.52-.62-.83c0-.15-.78-1.23-1-1.83-.07.1-.43-.68-.15.08a4,4,0,0,1,.27.49l.14.23,0,0a11.36,11.36,0,0,0,.89,1.33,5.07,5.07,0,0,1-1-1.45,8.39,8.39,0,0,1-.56-.74,27,27,0,0,1-.87-2.74,35.44,35.44,0,0,1-1.62-5.71,2.08,2.08,0,0,1,0-.87,6,6,0,0,0,.12.88c-.2-1.12-.17-3.34-.25-3.62.18-1.42.06.81.19-1.15l0,.27a46.12,46.12,0,0,1,1-5,16.77,16.77,0,0,1,2.29-4.94,2.8,2.8,0,0,1-.3.42c2.49-4.2,5.92-8.33,10.12-10.8,1.16-.74,1.28-.82,2-1.32l.31-.05c.4-.27.82-.5,1.23-.75,1.82-1,3.33-1.18,5.76-2l-.34,0a16.45,16.45,0,0,1,2.71-.63,1.66,1.66,0,0,1,.65-.17l0,.05c.74-.15,1.48-.35,2.24-.46,1.76-.16-.25.23,2.31,0,.49-.05,1.12-.13,1.69-.24s.81-.34.66-.31a4.71,4.71,0,0,1-.64.17.75.75,0,0,1-.4,0,2.61,2.61,0,0,0,.86-.22l0,0,.13,0,0-.35a10.93,10.93,0,0,0-1.56-.44c-2.8-.38-5.6-.86-8.41-1.05l.15,0H73l-.52,0c-.26,0-.52,0-.79,0,0,0,.12-.05.45-.06-1-.08-.87,0-1.71,0-.09,0-.05,0,0,0-.32,0-.64.09-.95.15.13,0,0-.07.1-.1a15.37,15.37,0,0,0-3,.78l.13-.06c-1.77.78-.79.41-1.2.69l-.93.4-.84.18-.16.2c-.22.11-.66.32-.6.24-.77.5.16,0-.27.28-1.11.45-2.76,1.72-3.07,1.75-.3.31,1-.59,0,.18-.41.06-1.16.89-2,1.54.18-.3,1-.92.12-.28-.39.55-1.58,1.4-2.19,2.09.06.12-1.33,1.48-2.24,2.72a33.47,33.47,0,0,0-2.59,3.45v0a28.15,28.15,0,0,1-1.32,2.49c0-.07,0-.26.27-.78l-.49.88a11.19,11.19,0,0,1-.48,1.11l0-.27a32.94,32.94,0,0,0-1.55,4.17c0,.08.34-.55.35-.32s-.17.57-.24.86c0,0,0-.13,0-.38a7.88,7.88,0,0,1-.2.85l.1-.73a6.18,6.18,0,0,0-.19,1c-.07,0-.15.44-.19.34s.14-.53.17-.77c-.18.69-.38,1.53-.48,1.8.05-.05.09,0,0,.53-.17,1.33-.14.45-.27,1.22,0,.33-.1,1.18,0,1.21a2,2,0,0,1-.11.61c0,.7.05,3.25.15,2.46v-.06a32,32,0,0,0,1.08,6.89h0A20.64,20.64,0,0,0,48.89,60c.16.37.38.86.25.74.51.9.6,1,1.36,2.27-.62-.84.14.34-.61-.87a11.29,11.29,0,0,0,1.8,2.52c-.38-.33.54.87,1,1.31l-.59-.74c.5.52.9,1,1.36,1.45l-.34-.15c1.87,2.07,3.94,3,5.56,4.36.66.32-1.22-.85-.62-.58,1,.7,2.09,1.52,2.43,1.71,1.47.91,1.49.64,3.08,1.5-.19-.14-.33-.34.9.21s1.33.81.59.51c-.28-.12-.4-.2-.39-.2-.38-.15-.86-.38-.44-.12l.17,0a17,17,0,0,1,1.74.9c.9.34.4.09-.24-.2a35.58,35.58,0,0,0,3.92,1.52c-.25-.11-.46-.23-.21-.15a13.83,13.83,0,0,0,2.65.66c.9.28-.37.08,1.27.4,1,.24.19.16-.22.1,1.51.24,2.8.57,3.67.68l-.81-.06,1.28.12L77,77.75a4.86,4.86,0,0,1,.86.13c.49,0-.36-.16.61-.18.63.09,1.91,0,2.12.12-2-.06.22.13-1.46.11.32,0,.72,0,1.19,0,.07,0-.07,0-.2,0,1.89.1.87-.12,2.82-.16-.25.07.46.11.77.08-.78,0-.38-.09.34-.17a7.14,7.14,0,0,0,2-.34l-.75.13c.24-.11.86-.23,1.7-.49.09,0-.76.24-.45.18.91-.37,2.12-.48,3.41-.84.62-.1.09.11.63,0a13.75,13.75,0,0,0,3.14-1.06c-.48.14-.5.18.44-.39A12.06,12.06,0,0,1,91.82,76a11.9,11.9,0,0,0,1.56-.71,12.1,12.1,0,0,1-2,.76c.76-.29.68-.25.3-.21a13.56,13.56,0,0,0,3.13-1.32l.06.21A38.47,38.47,0,0,0,100,72.11c-.23.13-.46.26-.7.38.25-.23,1.3-.81,1.88-1.37,0,.1.38-.2.66-.37-.08,0,1.39-1.07,1.49-1.31l.93-.56a21.76,21.76,0,0,0,3-2.83c-.36.45.31-.11-.58.82a5.12,5.12,0,0,0,.85-.88c.3-.23,1.14-1.35,1.54-1.77a5.62,5.62,0,0,1,.58-.9c.06-.05,0,0,0,0s.61-.93.19-.47c1.39-1.42,2.81-4.66,3.56-6.17a13.7,13.7,0,0,0,1.06-4.2c0,.05,0,0,0,.09A3.25,3.25,0,0,0,114.46,51.31ZM54.13,61.51l0,0a.59.59,0,0,1,.14.11,2.49,2.49,0,0,1,.32.54ZM70.24,19.15l-.5,0,.32-.06A.42.42,0,0,1,70.24,19.15Zm-18,12.31-.12.17.11-.17Zm-2.47,3.86,0,.05.05-.09Z"/><path class="cls-1" d="M69.63,19.06l.31,0Z"/><path class="cls-1" d="M114.55,52.76a1.37,1.37,0,0,0,0-.15C114.55,52.66,114.55,52.7,114.55,52.76Z"/><path class="cls-1" d="M53.73,61l-.09-.15.11.23.1.12Z"/><path class="cls-1" d="M46.31,49.55v0Z"/><path class="cls-1" d="M60.86,22.69q.74-.45,1.5-.85c-.28.11-.65.26,0-.13C60.44,22.69,62.8,21.53,60.86,22.69Z"/><path class="cls-1" d="M56.6,25.85c-.4.44-.49.54,0,.08C57.29,25.29,56.57,25.9,56.6,25.85Z"/><path class="cls-1" d="M49.29,61.07l-.13,0C49.52,61.66,49.2,61,49.29,61.07Z"/><polygon class="cls-1" points="56.8 69.66 57.81 70.3 57.07 69.82 56.8 69.66"/><path class="cls-1" d="M113,58.14l-.19.15C112.61,58.74,112.68,58.88,113,58.14Z"/><path class="cls-1" d="M106.21,30.76c.44.48.77,1,1,1.28A4.69,4.69,0,0,0,106.21,30.76Z"/><polygon class="cls-1" points="100.02 66.08 99.22 66.75 99.61 66.46 100.02 66.08"/><path class="cls-1" d="M76.13,42.94l-.07.17S76.11,43,76.13,42.94Z"/><path class="cls-1" d="M76.54,40.06V40l0-.05Z"/><polygon class="cls-1" points="79.23 32.02 79.25 32.05 79.31 32.05 79.23 32.02"/><path class="cls-1" d="M74.44,52.61h0C74.44,52.54,74.44,52.57,74.44,52.61Z"/><path class="cls-1" d="M80.32,66.93c-.17.18,0-.4-.19-.11C80.18,66.81,80.16,67.18,80.32,66.93Z"/><path class="cls-1" d="M75.2,59.35v0a.13.13,0,0,1,0-.11A.25.25,0,0,0,75.2,59.35Z"/><polygon class="cls-1" points="75.63 61.09 75.64 61.05 75.62 61 75.63 61.09"/><path class="cls-1" d="M80.46,66.55c.11-.37.13-.14.24-.39-.09,0-.09-.15-.06-.39a2.46,2.46,0,0,1-.12.32c-.08-.57.19-.44.06-.93l.08.15c-.05-.24,0-.9-.22-1.13,0,0,.08-.1.1,0a13.14,13.14,0,0,1-.14-1.74l.06,0c0-.11-.11-.19-.06-.32s.06,0,.06,0a1,1,0,0,1-.08-.43l.07.12a5.16,5.16,0,0,0-.23-1.34c.16,0,.2-.45.21-.67h0a11.6,11.6,0,0,0-.26-1.73,12.3,12.3,0,0,0,.12-1.9c0,.09-.13,0-.14-.12s-.12-.39,0-.37v.05c.14-.11.09-.4.09-.63l-.19,0c.26-.61-.14-1.57.11-1.9-.05-.14-.05-.32-.1-.46h.1a8.73,8.73,0,0,0,0-1.09l.07.1c0-.28-.3-.35-.3-.61l.16-.07a5.87,5.87,0,0,0,0-1.45.1.1,0,0,1,.07.1c0-.23.16-.87-.06-.8.14,0,.05-.49,0-.76l.1.05a1,1,0,0,1-.15-.56c0-.07.09-.06.05,0,.07-.24-.08-.2,0-.49l.06.12A.46.46,0,0,0,80.2,47c0-.16.06-.48.16-.51a.35.35,0,0,1-.08-.33s.05,0,.06.07c.1-.42-.07-.63,0-.92a.08.08,0,0,0,.06,0,5.43,5.43,0,0,1-.05.58c.09,0,.13-.26.24,0a2.14,2.14,0,0,1-.13-.87l0,0v0a.36.36,0,0,0,0-.17,1.21,1.21,0,0,0,0-.22c.08,0,.06-.31.07-.45s-.08-.17-.17,0c0,0,0,0,0,.12a.27.27,0,0,0,0,.06h0v.34a.43.43,0,0,1,0-.37L80.3,44c.15-.18.24-.53.33-.58a3.14,3.14,0,0,0-.2-1.24c0-.12.06-.13.09-.18s0,.15,0,.19c0-.24,0-.7-.15-.75.06-.3.12.17.1-.24l0,.06c.21-.8-.35-1.3-.1-2.19,0,.06,0,.09,0,.11.09-1-.21-2.07-.1-3.08,0-.29-.07-.31-.15-.48l.1-.07-.15-.28c-.15-.4.22-.76-.08-1.28l-.06.09c0-.2-.2-.58-.11-.57s-.09,0-.08-.12l.05,0-.23-.42c-.07-.36.23,0,.09-.52-.08-.18-.32-.48-.33-.4a.45.45,0,0,1,0,.11.1.1,0,0,0-.05.07l0,0v0l-.08-.16h0v0c-.16,0-.33,0-.32.39l.09.13,0,0v0s0,0,0,.06c-.17.4-.28.65-.37.91s-.1.31-.15.46l0,0v.09l-.08.24s0,0,0-.1c-.14.16,0,.18-.14.32s0,0,0,0l0,.2s-.11,0-.05-.11c-.19.31-.06.57-.21.67v0c-.07.36,0,.22.07.3l-.06.22-.23.11.09.08s-.05.14-.09.11c0,.2.06,0,.09.11-.17.2-.13.65-.31.66.06.11.12-.21.11.06-.2,0,0,.3-.18.49-.08-.09,0-.28-.12-.09.13.17-.14.41-.15.6,0,0,0,.06,0,.12a.16.16,0,0,1,0-.12H77s.08.09.12.12-.09.38-.11.6a6.06,6.06,0,0,0-.3.83h0c.12.08,0,.37,0,.59-.08,0-.1-.07-.11-.19l0,.2a.42.42,0,0,1,0,.26l-.09-.07a3.72,3.72,0,0,1-.12.9c.06,0,.18-.08.25,0l0,.17a.09.09,0,0,1-.06-.09.34.34,0,0,1,0,.18l-.06-.16c-.07.15.05.09,0,.22s-.07.08-.12.06,0-.1,0-.16a.81.81,0,0,1-.17.35s.1,0,.09.12c0,.27-.1.08-.16.23s0,.24.06.26-.07.08-.1.11-.09.65,0,.51v0a11.81,11.81,0,0,1-.24,1.4h0a4.73,4.73,0,0,0,0,.81c0,.08-.09.18-.13.14a1.09,1.09,0,0,1-.07.53c0-.22-.07.06,0-.22a1,1,0,0,0-.08.62c-.08-.11-.15.18-.14.32l.09-.18a2.49,2.49,0,0,1-.06.4l-.11-.09c-.23.53.09,1-.22,1.41.06.16.11-.29.18-.14a3.26,3.26,0,0,1-.28.56c-.12.33.12.35,0,.7.05,0,.17-.06.17.21s-.23.28-.24.12,0-.09,0-.08,0-.19-.07-.1l0,0c-.06.12-.11.47-.17.38,0,.2.06.09.1,0a7.21,7.21,0,0,0-.16.85c0-.05.09-.09.08,0-.11.49.05.23,0,.57-.08.18-.15-.09-.13.26s-.12,0-.15-.05a1.93,1.93,0,0,1-.13.76l0-.17a1.18,1.18,0,0,1,0,.26l.09-.09c0,.1,0,.18-.06.17s.15-.07.21.13,0,.39-.09.43c.06-.4-.12,0-.12-.3a.73.73,0,0,1,0,.24s0,0,0,0c-.11.39.12.18.11.59-.06-.05-.13.09-.11.16,0-.16.11-.08.16.07s0,.28,0,.41l0-.15c.06.05.06.18.08.36-.05,0,0-.16-.06-.1s-.12.45,0,.73-.12,0-.15.13c.09.31-.08.34,0,.67.08-.1.06-.11.16.11L74.58,55l.15.34c0-.16-.08-.34-.06-.44.08.16.05.14.12.06-.12.23.1.43,0,.69H74.6c-.07.39.17.68.17,1.18l0-.16c.09.06.05.31.1.46-.07,0-.09.1-.12.17s0,.37.19.39L74.9,58c0,.41.27.42.32.81-.1-.1-.12.08-.22-.16,0,.13,0,.25.08.24s.16.34.12.46.12,0,.15.19,0,0,0,0,.1.21.15.07c-.14.44.27,1.08.18,1.46l.29.83s0,0,0,0c0,.36.26.15.31.55-.05.23-.12-.18-.13,0-.21.13.17.44.11.74l0-.06c0,.21.21.45.27.78,0,0,0,0,0,0a3,3,0,0,1,.39.92c-.11-.08-.08-.13-.16-.06s.14-.07.22.21c0,.1,0,.31-.13.36L76.66,65c-.1.16.07.34.08.49h-.06c.1.41.24.38.32.83l0-.05c.19.21,0,.22.12.44l-.12.1c.07.14.26.54.42.8a1.9,1.9,0,0,1-.44-.65c0,.15.17.58.27.62a.43.43,0,0,1-.11-.2,2.43,2.43,0,0,1,.48.68c-.16,0,0,.41.21.82a1.64,1.64,0,0,1,.74-.24c.29-.19.53-.27.84-.47a2.09,2.09,0,0,0,.71-.83c-.31.13.09-.19-.13-.25.05-.15.07-.2.09-.21h0a3.22,3.22,0,0,0,.27-.44C80.5,66.27,80.42,66.55,80.46,66.55Zm.15-22.21c0,.09,0,.12,0,.13v-.16h0Zm-2.43-9.73a0,0,0,0,1,0,0l0,.14S78.18,34.66,78.19,34.61Z"/><polygon class="cls-1" points="80.49 44.18 80.48 44.14 80.46 44.19 80.49 44.23 80.49 44.18"/><path class="cls-1" d="M76.16,42.88l0,0h0Z"/><path class="cls-1" d="M77.57,36.18c-.06,0-.13.11-.09,0-.24.39.11-.06,0,.37Z"/><path class="cls-1" d="M77,37.52c0,.13,0,.16.08,0S77.07,37.54,77,37.52Z"/><path class="cls-1" d="M75.61,45.24c0,.15,0,0,.09,0Z"/><polygon class="cls-1" points="75.15 47.77 75.16 47.59 75.16 47.53 75.15 47.77"/><path class="cls-1" d="M75.55,60.71c0-.09-.17-.08-.1.07Z"/><path class="cls-1" d="M77,66.57a2.36,2.36,0,0,0,0-.32A.32.32,0,0,0,77,66.57Z"/><polygon class="cls-1" points="80.27 54.94 80.23 54.73 80.23 54.83 80.27 54.94"/><path class="cls-1" d="M63.69,49.21l0,.09S63.72,49.25,63.69,49.21Z"/><path class="cls-1" d="M62.42,48.26l0,0-.05,0Z"/><polygon class="cls-1" points="59.74 44.8 59.76 44.8 59.79 44.75 59.74 44.8"/><path class="cls-1" d="M71.17,47.58c0,.15-.2-.11-.2.1C71,47.64,71.19,47.74,71.17,47.58Z"/><path class="cls-1" d="M71.2,54h0s0,0-.06,0S71.16,54,71.2,54Z"/><polygon class="cls-1" points="72.15 53.32 72.12 53.32 72.11 53.36 72.15 53.32"/><path class="cls-1" d="M72.59,52.11c.07-.19-.13-.28-.15-.48h0a1.33,1.33,0,0,1-.3-.5c.1,0,.07.07.15,0s-.14.05-.2-.1.06-.18.15-.22l0,.15c.11-.11,0-.19,0-.27h.06c-.07-.22-.22-.19-.27-.43l0,0c-.17-.09,0-.13-.09-.23L72,50a3.33,3.33,0,0,1-.31-.4c.13.05.24.21.34.31a.77.77,0,0,0-.15-.26.06.06,0,0,1,0,.05.57.57,0,0,1-.3-.35c.27-.07-.11-.45,0-.66-.23-.25-.22-.6-.42-.92-.13.22-.06-.09-.24,0-.05-.07-.07-.1-.06-.11h0v-.29c0-.09.09,0,.12,0s0-.12,0-.26c-.05.06-.13,0-.17-.11v.18c-.24-.16,0-.3-.21-.46l.11,0c-.11-.09-.3-.42-.52-.42,0,0,0-.1.08-.06-.19-.28-.6-.46-.7-.71l.06,0c-.05,0-.15,0-.16-.1s.06,0,0,0-.18-.05-.21-.14h.09c-.17-.28-.46-.24-.67-.4.11-.12,0-.32-.13-.43h0a2.91,2.91,0,0,0-.89-.45c-.07-.26-.55-.48-.8-.73,0,.05-.07.1-.13.08s-.25,0-.16-.14l0,0c0-.15-.14-.21-.26-.27l-.11.16c-.18-.42-.84-.29-.9-.59-.09,0-.18,0-.28,0l0-.09a2.4,2.4,0,0,0-.54-.25l.08,0c-.13-.07-.29.2-.42.14l0-.16c-.24-.11-.4-.34-.68-.35,0,0,0-.05.08,0s-.31-.33-.4-.13c.07-.11-.19-.16-.33-.2l.08-.06c-.16,0-.19,0-.33,0s0-.08.05,0c-.05-.12-.14,0-.2-.16h.09c-.08-.1-.1-.07-.2-.08a.21.21,0,0,1-.05-.28c-.05,0-.16,0-.17-.08a.06.06,0,0,1,.07,0,.81.81,0,0,0-.17-.3.45.45,0,0,1-.12-.29.21.21,0,0,0,0-.1,4,4,0,0,1,.18.45c.08,0,0-.32.17-.21-.15-.21-.37-.29-.44-.55V39.6h0c0-.09-.05-.05-.1,0a.63.63,0,0,0-.16.07c0-.08-.25.1-.36.16s-.11.17,0,.18,0,0,.08-.07l0,0h0l.24-.15c-.09.12-.16.21-.26.2l-.09.25c-.12-.1-.42,0-.5,0-.16.19-.42.44-.37.68,0,.07-.09,0-.13,0s0-.08,0-.12c-.05.14-.24.36-.12.46-.14.13-.06-.15-.16.08l0,0c-.42.41.06.83-.21,1.3,0,0,0-.05,0-.06-.11.61.26,1.15.22,1.73,0,.16.09.15.18.23l-.1.06.17.12a.27.27,0,0,1,0,.25h-.27c-.17-.11.12-.2-.15-.32-.11,0-.35,0-.33.09s.09.08.07.13h-.1l0,0h0l-.22.28c.17.21.34.42.5.64h0l.1.11a.06.06,0,0,1-.07,0c0,.13.1,0,.1.17s0,0,0,0l.11.05s-.07.09-.1,0c.07.21.3.15.28.28h0c.18.11.14,0,.21,0l.09.08-.05.2.09-.07s.05.06,0,.09c.13,0,0,0,.11-.06,0,.16.31.2.22.35.09,0-.05-.13.09-.08-.09.17.15.08.18.23s-.15-.06-.11.08c.16-.08.16.18.25.22a.07.07,0,0,1,.09,0,.1.1,0,0,1-.09,0l0,.06s.09,0,.13-.08.16.14.27.19.2.26.29.4h0c.11-.08.22,0,.33.1a.15.15,0,0,1-.17.05l.09.07a.18.18,0,0,1,.15,0l-.09.06c.12.09.31.11.41.28,0,0,.06-.16.12-.21l.07.06a.08.08,0,0,1-.08,0s.07,0,.09,0H63c0,.08.08,0,.13,0s0,.07,0,.11,0-.06-.07-.06a.32.32,0,0,1,.08.22s.06-.07.11,0,0,.1,0,.18.1.09.17,0,0,.07,0,.11.28.22.29.08v0h0c.26.08.36.39.58.52l0,0c.14.07.27.2.4.21s0,.12,0,.14.14,0,.23.18c-.13,0,0,.07-.12,0,.09.12.08.19.27.22-.1,0,0,.16.08.19l0-.12a.76.76,0,0,1,.17.14l-.11.07c.14.31.58.17.6.5.12,0-.09-.15,0-.18s.09.33.13.36.25,0,.37.15c0,0,.06-.15.21-.09s0,.25-.08.22,0,0,0-.05-.1,0-.09,0l0,0c0,.08.17.2.09.23.11,0,.08,0,0-.09.1.16.21.18.33.34,0,0,0-.09,0-.07.17.22.14,0,.3.12s-.13.1,0,.17-.06.1-.11.1c.19.05.19.23.24.31l-.08,0a.26.26,0,0,1,.1.07l0-.09s.05.07,0,.1.07-.13.2-.11.18.12.11.21c-.12-.18-.07.09-.2,0a.19.19,0,0,1,.09.09s0,0,0,0c.07.22.16,0,.31.14a.08.08,0,0,0,0,.14c-.06-.07,0-.11.14-.08s.14.09.19.14l0-.08c.07,0,.11,0,.2.09s-.09,0-.08,0,.12.27.31.31c0,.08-.06.11,0,.17.22,0,.17.2.41.22,0-.1,0-.08.12-.12a1.63,1.63,0,0,1-.35-.08l.26,0c-.1,0-.22,0-.27-.08.13,0,.1,0,.1-.09.06.19.28,0,.38.16L69,54c.2.16.42,0,.69.09L69.66,54c.05-.08.18,0,.28,0s0,.1.08.15.22,0,.25-.13l.13.1c.24,0,.26-.21.48-.21-.06.08.05.12-.1.2.08,0,.15,0,.14-.05s.19-.13.27-.07,0-.11.1-.13a0,0,0,0,1,0,0s.11-.08,0-.14a.29.29,0,0,0,.15,0c.34,0,.43-.42.65-.46a5,5,0,0,0,.2-.49s0,0,0,0c.14-.18-.14-.19,0-.39s0,.14.09.08c.24,0,0-.29.15-.5ZM61.65,39.79v0a.3.3,0,0,1,0-.08c.07-.06.1-.05.1,0ZM60.53,45v0h0ZM60.24,46s0,0,0,0l0,0Z"/><path class="cls-1" d="M71.94,49.63l0-.05S71.92,49.62,71.94,49.63Z"/><polygon class="cls-1" points="61.55 39.96 61.53 39.98 61.57 39.99 61.59 39.94 61.55 39.96"/><polygon class="cls-1" points="63.67 49.18 63.67 49.16 63.67 49.17 63.67 49.18"/><path class="cls-1" d="M61,46.89l-.13-.15c0,.05,0,.12-.07.07C60.86,47.06,60.77,46.72,61,46.89Z"/><path class="cls-1" d="M61.31,47.38c.07,0,.09,0,.06-.06S61.33,47.37,61.31,47.38Z"/><path class="cls-1" d="M64.57,50.17c.07,0,0,0,.07-.06Z"/><polygon class="cls-1" points="65.48 51.08 65.6 51.14 65.51 51.09 65.48 51.08"/><path class="cls-1" d="M72.1,53.55l-.11,0C72,53.56,72.06,53.66,72.1,53.55Z"/><path class="cls-1" d="M72.11,50.09c0,.07,0,.15,0,.18A.12.12,0,0,0,72.11,50.09Z"/><polygon class="cls-1" points="66.27 42.9 66.31 42.93 66.39 42.93 66.27 42.9"/><path class="cls-1" d="M59.56,53.46l.06.1S59.59,53.5,59.56,53.46Z"/><path class="cls-1" d="M58.2,52.34l0,0-.05,0Z"/><polygon class="cls-1" points="55.77 48.26 55.79 48.26 55.8 48.21 55.77 48.26"/><path class="cls-1" d="M72,60.29c0,.17-.24-.11-.18.12C71.87,60.37,72.1,60.47,72,60.29Z"/><path class="cls-1" d="M67.18,59.73v0s0,0-.05,0S67.15,59.71,67.18,59.73Z"/><polygon class="cls-1" points="67.96 60.45 67.96 60.42 67.93 60.4 67.96 60.45"/><path class="cls-1" d="M72.35,61.89a1.83,1.83,0,0,0-.16-1.39c-.1.26-.08-.12-.25,0-.07-.07-.09-.1-.08-.12h0a2.67,2.67,0,0,1-.07-.3c0-.09.09,0,.12,0s0-.12,0-.24c-.05.07-.13,0-.16-.08V60c-.24-.14,0-.28-.18-.43l.1,0c-.1-.09-.19-.4-.39-.47,0,0,.07-.07.1,0,0-.28-.36-.72-.35-1h.06c0-.06-.13-.08-.11-.18s.06,0,.05,0-.15-.14-.15-.24l.08.05c-.07-.37-.35-.46-.52-.7.14-.07.05-.35,0-.49h0a2.72,2.72,0,0,0-.83-.77c0-.3-.54-.63-.81-.93,0,.06-.08.1-.15.07s-.27,0-.18-.16l0,0c0-.16-.16-.22-.27-.3l-.12.15c-.16-.42-.86-.4-.9-.71-.1,0-.19-.06-.29-.06l.06-.09a2.77,2.77,0,0,0-.56-.35l.09,0c-.14-.09-.34.14-.47.07l0-.16c-.25-.15-.44-.42-.76-.45a.08.08,0,0,1,.09,0c-.12-.07-.4-.36-.47-.16.07-.12-.25-.17-.42-.2l.07-.07c-.18,0-.2.07-.38,0s0-.09,0,0c-.1-.12-.15,0-.27-.12l.09,0c-.13-.08-.13,0-.24,0s-.23-.17-.21-.26a.17.17,0,0,1-.22,0s0,0,.07,0c-.18-.19-.38-.09-.48-.27a.08.08,0,0,0,0-.07l.29.19c0-.08-.08-.18.09-.22-.15,0-.42,0-.53-.11a.11.11,0,0,1,0,0h0a.14.14,0,0,0-.09,0,.46.46,0,0,0-.1-.09c0-.08-.14-.13-.21-.18s-.13,0-.09.15,0,0,.07,0h0l.18.1c-.08,0-.16,0-.21-.08l-.18.08c0-.18-.17-.36-.15-.45-.24-.08-.52-.27-.75-.18-.07,0,0-.09,0-.13s.08,0,.12,0c-.15,0-.37-.2-.46-.1-.12-.14.15-.06-.07-.16l0,0c-.3-.43-.84-.11-1.16-.62,0,0,0,0,0,.07-.46-.42-1.13-.55-1.54-1-.14-.12-.21-.06-.33,0v-.12l-.22,0c-.27,0-.36-.4-.73-.29l0,.08c-.11,0-.37,0-.33-.11s-.05.07-.09,0v-.06l-.29,0c-.2-.08.07-.22-.23-.29-.11,0-.35.09-.32.14s.11.06.1.12h-.11v0h0l-.32.55.42.48h0l.1.12s0,0-.05,0c0,.14.11,0,.12.18s0,0,0,0l.11.06s-.07.09-.1,0c.07.22.31.18.28.32h0c.16.13.15.06.21,0l.1.11-.07.18.1-.05s0,.08,0,.1c.13,0,0,0,.12,0h0c0,.17.29.26.19.4.1,0,0-.15.1-.07-.11.16.14.11.16.27s-.14-.09-.12.07c.17-.05.14.22.24.28a.07.07,0,0,1,.09,0,.1.1,0,0,1-.09,0l0,.06s.1,0,.14-.06.15.18.26.25c0,0,.18.31.28.47h0c.12-.07.23.08.34.15a.15.15,0,0,1-.17,0l.09.09a.2.2,0,0,1,.16,0l-.09,0c.12.12.32.15.43.34.05,0,.06-.18.14-.21l.08.07a.08.08,0,0,1-.09,0s.08,0,.09.06h-.12c0,.09.09,0,.14,0s0,.08,0,.11,0-.07-.07-.07a.37.37,0,0,1,.09.24A.08.08,0,0,1,59,53c.12.11,0,.1,0,.2s.11.1.18,0,0,.08,0,.11.31.25.31.1v0h0c.28.1.39.43.64.57l0,0c.15.07.3.22.44.23s0,.12,0,.14c.11.06.15,0,.26.2-.14,0,0,.07-.13,0,.11.13.1.19.3.23-.1,0,0,.17.1.19l0-.12a.92.92,0,0,1,.19.15l-.11.07c.17.33.63.17.68.53.12,0-.11-.16,0-.19s.13.34.17.37c.13.18.26,0,.41.15,0-.05.05-.16.21-.09s0,.26-.06.23,0,0,0-.05-.11,0-.09,0l0,0c0,.08.21.21.12.23.12,0,.08,0,0-.1.12.17.25.19.38.34,0,0,0-.1,0-.08.21.22.15,0,.33.12s-.13.1.07.18,0,.11-.11.11c.2,0,.24.25.32.33l-.1,0a.41.41,0,0,1,.13.08v-.1s.07.08.05.1S63.81,57,64,57s.21.1.16.21c-.17-.18,0,.11-.22,0a.24.24,0,0,1,.11.09s0,0,0,0c.12.22.16,0,.35.11-.06,0,0,.13,0,.14s0-.11.13-.1.15.07.21.12l-.06-.07c.06,0,.12,0,.21.07s-.1,0-.08,0,.14.26.31.3-.07.1,0,.16c.2,0,.1.19.3.26,0-.1,0-.09.15-.07l-.29-.15.24,0c-.07-.06-.19-.08-.23-.13.12,0,.1,0,.11-.07,0,.18.25.1.31.27l-.14.16c.12.22.38.17.58.4l0-.09c.09,0,.15.11.24.14s0,.11,0,.17.16.14.27.05l0,.16c.15.18.34,0,.5.19-.1,0-.06.12-.21.06.06.05.1.11.13.07s.22.07.23.17.1-.05.16,0,0,0,0,0,.13.06.13-.05c0,.32.49.44.5.72a5.11,5.11,0,0,1,.41.33s0,0,0,0c.1.2.24,0,.35.18s-.13,0-.11,0c-.15.19.22.19.23.4l0,0c0,.14.27.15.38.32a0,0,0,0,0,0,0,1.27,1.27,0,0,1,.53.32c-.11,0-.09,0-.14.05s.1-.12.23,0a.62.62,0,0,0,0,.12.31.31,0,0,1,0,.19l-.11-.1,0-.05s0,.05,0,.09.23.15.3.19l0,0c.32.13.35,0,.64,0l0,0c.17-.12.12.1.29,0l0,.14a5.3,5.3,0,0,0,.54-.23c-.08.14-.3.22-.45.28.11,0,.38,0,.42-.13s-.09.07-.14.05a2.21,2.21,0,0,1,.46-.34C71.77,62.58,72.13,62,72.35,61.89ZM62.59,51.14h0l0,0c.05,0,.06,0,.05.06ZM56.1,49.62h0Z"/><path class="cls-1" d="M62.47,51.18h0l0,0,0,0Z"/><path class="cls-1" d="M59.53,53.42a.06.06,0,0,1,0,0h0Z"/><path class="cls-1" d="M56.59,50.53c.09.28,0-.1.2.12l-.12-.18C56.66,50.52,56.66,50.59,56.59,50.53Z"/><path class="cls-1" d="M57.11,51.23c.07,0,.09,0,.06-.05S57.13,51.22,57.11,51.23Z"/><path class="cls-1" d="M60.61,54.43l-.07.07C60.61,54.54,60.56,54.47,60.61,54.43Z"/><polygon class="cls-1" points="61.72 55.51 61.62 55.46 61.58 55.45 61.72 55.51"/><path class="cls-1" d="M67.81,60.27c-.06,0-.15.06-.06.1Z"/><path class="cls-1" d="M70.65,62.68c-.09,0-.17-.07-.21-.06A.15.15,0,0,0,70.65,62.68Z"/><polygon class="cls-1" points="68.01 54.34 68.06 54.37 68.14 54.38 68.01 54.34"/><path class="cls-1" d="M96.24,55.54s.06,0,.11,0Z"/><path class="cls-1" d="M98.05,55.35h0l0,0Z"/><polygon class="cls-1" points="102.63 56.4 102.62 56.41 102.63 56.47 102.63 56.4"/><path class="cls-1" d="M83.08,62.73c-.07-.15.26,0,.13-.17C83.21,62.6,83,62.57,83.08,62.73Z"/><path class="cls-1" d="M87,58h0s0,0,.06,0S87,58,87,58Z"/><polygon class="cls-1" points="86.04 58.48 86.07 58.49 86.1 58.47 86.04 58.48"/><path class="cls-1" d="M99.32,55.48a.1.1,0,0,1,.07-.07.21.21,0,0,0,0-.07s0,.09-.06.14-.23,0-.36,0-.34-.07-.52-.12v0c0,.13-.21.11-.34.14a.14.14,0,0,1,.09-.15h-.12a.19.19,0,0,1-.14.08l0-.1c-.16,0-.32.14-.53.08,0,.07.08.16.06.24h-.1s0-.07,0-.09-.06,0-.1,0l.08-.09c-.1,0,0,.07-.12.07s-.06,0-.05-.11.07,0,.09,0a.36.36,0,0,1-.23-.1s0,.1-.05.11-.06-.08-.16-.11-.14,0-.14.12-.06,0-.08-.07-.39.05-.28.16h0c-.26.14-.57,0-.83.08v0c-.15.06-.35.08-.45.17s-.12,0-.11-.09-.12.09-.31.06c.11-.08-.05,0,.12-.06-.16,0-.21-.06-.36.07,0-.1-.14-.09-.21,0l.12,0a.88.88,0,0,1-.23,0l0-.13c-.35-.08-.53.35-.83.18-.07.1.19,0,.13.13s-.34-.11-.39-.1c-.22,0-.15.22-.37.22,0,0,.09.14-.06.22s-.22-.13-.14-.19.05,0,.06,0,.1-.06,0-.09v0c-.08,0-.28,0-.26,0-.1.07,0,.08.06.08-.2,0-.29.08-.5.09,0,0,.08.06,0,.06-.3,0-.1.11-.29.18s0-.16-.18-.06-.06-.1,0-.15c-.15.13-.34,0-.45.07l.08-.06a.41.41,0,0,1-.14.06l.08.07c-.06,0-.1,0-.11,0s.09.12,0,.23-.2.11-.26,0c.24,0-.06-.1.13-.18a.24.24,0,0,1-.14,0s0,0,0,0c-.25,0-.06.15-.28.22,0-.07-.09-.1-.12-.07s.08.09,0,.16-.14.09-.22.11h.09c0,.07-.08.09-.17.14s.08-.06,0-.07c-.07.15-.29,0-.41.1s0-.11-.12-.12-.22,0-.37.12c.08.06.08,0,0,.17l.27-.17-.14.19c.09,0,.17-.12.23-.13s-.06.08,0,.13c-.17-.08-.21.16-.38.13l-.07-.2c-.24,0-.34.24-.63.3h.1c0,.09-.16.08-.24.14s-.08-.07-.14-.1-.2.08-.17.22l-.16,0c-.23.05-.17.29-.39.35,0-.1-.08-.11,0-.22-.07,0-.14,0-.12.09s-.15.17-.24.14,0,.11-.08.14a0,0,0,0,1,0,0s-.1.1,0,.14c-.3-.11-.59.27-.85.18-.14.09-.31.19-.44.26s0,0,0,0c-.22,0,0,.24-.27.27s.09-.11,0-.12c-.13-.2-.24.15-.44.09l0,0c-.14,0-.23.21-.41.28a0,0,0,0,0,0,0,1.3,1.3,0,0,1-.44.43c0-.11.06-.08,0-.15s.09.13-.05.22-.2,0-.26-.09l.14-.07c-.13-.08-.18.09-.27.11l0-.06c-.22.13-.14.23-.41.39l0,0c0,.2-.16,0-.21.19l-.13-.08-.24.5a1.07,1.07,0,0,1,.13-.48c-.08.07-.24.26-.21.35s0-.1.07-.12a.86.86,0,0,1-.16.49c-.19-.21-.41.43-.38.72v0a5.08,5.08,0,0,0,.78,1c0-.27.11.08.22-.12.08,0,.12.07.12.08h0a1.64,1.64,0,0,0,.21.27c0,.09-.12,0-.13,0,.23.12.06.13.22.25,0-.09.12-.07.31,0A1,1,0,0,1,83.6,63c.42,0,.3.23.62.13l-.09.07c.15,0,.56,0,.7-.19,0,0,.07.08,0,.1.37,0,.77-.27,1.05-.21l0,.06c.06,0,.09-.12.19-.08s0,.06,0,.06.15-.13.24-.12l-.06.08c.36,0,.48-.27.74-.39,0,.15.33.12.45.09v0a4.15,4.15,0,0,0,.89-.54c.27.09.73-.19,1.1-.22-.06,0,0-.12,0-.16s.18-.19.22,0h0c.11.11.26,0,.38,0l0-.19c.42.14.83-.42,1.09-.25.06-.07.16-.11.22-.19l0,.1a2.63,2.63,0,0,0,.61-.21l0,.09c.16-.05.09-.35.23-.41l.09.13c.27-.1.58-.08.8-.3a.08.08,0,0,1,0,.09c.13,0,.52-.08.41-.26.05.13.28-.09.4-.2v.1c.08-.17.07-.2.23-.3s.06.06,0,.06c.15,0,.07-.13.25-.14l0,.08c.14,0,.12-.07.17-.17a.26.26,0,0,1,.32,0,.17.17,0,0,1,.14-.16s0,.06,0,.08c.26,0,.3-.24.5-.2a.08.08,0,0,0,0,0l-.32.1c0,.09.19,0,.11.21.1-.11.25-.33.41-.34l0,0v0a.13.13,0,0,0,.09,0l.13,0c0,.07.19,0,.26,0s.06-.11-.06-.16,0,0-.06,0l0,0h0l-.18.07c0-.07.09-.13.19-.11l0-.19c.15.1.37.1.43.17.21-.14.52-.23.6-.47.06,0,.09,0,.13,0s-.08,0-.09.08.37-.16.36-.3c.18,0,0,.15.17,0l0,0c.51,0,.59-.58,1.18-.51,0,0-.06,0-.07,0,.6-.09,1.1-.53,1.72-.55.17,0,.16-.11.23-.2l.07.09.12-.18c.2-.17.49.11.72-.17L101.5,57c.11,0,.32-.16.33-.08s0-.08.06-.06l0,.05.22-.19c.21,0,0,.23.34.13.1-.06.25-.27.2-.29s-.12,0-.15,0l.09-.06v0h0l-.07-.44-.79-.1v0l0,0-.15,0s0,0,0,0-.11,0-.2-.05,0,0,0,0l-.12,0s0-.11.06-.08c-.2-.11-.34.07-.41,0h0c-.21,0-.14.06-.16.13h-.14l-.08-.19,0,.11s-.09,0-.07-.07,0,.05-.05.11c-.13-.12-.39,0-.41-.17-.06.08.13.07,0,.12,0-.19-.18,0-.3-.07,0-.1.17,0,0-.13-.09.16-.25,0-.36,0S99.35,55.47,99.32,55.48ZM96,59.26h0a.15.15,0,0,1,0,.06s-.07,0-.08,0Zm5.41-3.47h0Z"/><path class="cls-1" d="M96,59.14h0v0Z"/><path class="cls-1" d="M96.39,55.58h0Z"/><path class="cls-1" d="M100.21,55.49l.2.05s-.08-.1,0-.1C100.18,55.29,100.47,55.54,100.21,55.49Z"/><path class="cls-1" d="M99.58,55.32c-.07,0-.09,0,0,.08S99.57,55.35,99.58,55.32Z"/><path class="cls-1" d="M95,55.68v-.09C94.87,55.62,95,55.63,95,55.68Z"/><polygon class="cls-1" points="93.56 55.74 93.43 55.81 93.53 55.76 93.56 55.74"/><path class="cls-1" d="M86.19,58.31l.07.09S86.26,58.24,86.19,58.31Z"/><path class="cls-1" d="M83,60c.07,0,.17-.06.2-.1A.15.15,0,0,0,83,60Z"/><polygon class="cls-1" points="90.23 61.45 90.18 61.46 90.13 61.52 90.23 61.45"/><path class="cls-1" d="M92.25,47.57s.05,0,.1,0Z"/><path class="cls-1" d="M93.87,47.17h0v-.05Z"/><polygon class="cls-1" points="98.42 47.17 98.4 47.18 98.43 47.23 98.42 47.17"/><path class="cls-1" d="M82.56,56.49c0-.15.23,0,.15-.16C82.7,56.38,82.48,56.35,82.56,56.49Z"/><path class="cls-1" d="M84,50.66h0s0,0,0,0S84,50.63,84,50.66Z"/><polygon class="cls-1" points="83.17 51.17 83.2 51.17 83.22 51.15 83.17 51.17"/><path class="cls-1" d="M95.4,47.1c0-.1.14-.07,0-.14,0,.18-.23,0-.33,0a.07.07,0,0,1,0,.08.1.1,0,0,1,0-.08.23.23,0,0,0,0-.07s0,.1,0,.15-.21,0-.32.08-.32,0-.49,0v0c0,.14-.17.14-.28.19a.15.15,0,0,1,.06-.16l-.11,0a.18.18,0,0,1-.12.1v-.1c-.14,0-.27.17-.47.15,0,.06.09.15.09.23l-.09,0a.08.08,0,0,1,0-.08s-.05.05-.09,0l.06-.1c-.09,0,0,.08-.1.08s-.06,0-.06-.1.07,0,.09,0a.31.31,0,0,1-.22-.07s0,.09,0,.12-.07-.07-.16-.09-.13,0-.11.13-.06,0-.08-.06-.34.09-.24.19h0c-.22.16-.52.06-.75.17v0c-.13.08-.31.11-.4.21s-.12,0-.11-.08-.1.09-.28.08c.09-.09-.05,0,.1-.08-.15,0-.2,0-.32.1,0-.1-.14-.08-.2,0l.12,0a.74.74,0,0,1-.21.06V47.9c-.34-.06-.45.4-.74.23-.05.11.17,0,.14.12s-.33-.09-.37-.08c-.2,0-.11.22-.32.24a.13.13,0,0,1,0,.22c-.14,0-.22-.11-.15-.18s0,0,.05,0,.09-.07,0-.09v0c-.08,0-.26,0-.24,0-.09.07,0,.08.06.08-.19,0-.26.09-.45.11,0,0,.08.05.05.06-.27,0-.08.12-.25.2s0-.16-.17,0-.06-.1,0-.15c-.13.14-.31.06-.41.08l.07-.06a.35.35,0,0,1-.12.07l.08.06c-.05,0-.1,0-.11,0s.09.12,0,.23-.18.13-.24,0c.22,0-.07-.1.1-.19a.21.21,0,0,1-.12,0s0,0,0,0c-.23,0,0,.16-.24.24a.08.08,0,0,0-.12-.07c.08,0,.08.08,0,.16s-.12.09-.19.12h.09c0,.07-.07.09-.15.15s.07-.07,0-.07c-.05.15-.27,0-.37.13s-.06-.11-.12-.11-.2,0-.33.13c.08.06.08,0,0,.16l.24-.18-.11.19c.08,0,.14-.13.2-.14s-.05.08,0,.13c-.16-.07-.18.17-.34.15l-.09-.2c-.23,0-.28.27-.55.34h.09c0,.09-.14.09-.21.16s-.09-.07-.14-.09-.18.09-.13.23l-.15,0c-.21.07-.12.3-.31.38,0-.1-.09-.1,0-.21-.06,0-.12.05-.1.1s-.12.18-.21.15,0,.11-.05.15a0,0,0,0,1,0,0s-.08.1,0,.14c-.3-.08-.5.31-.77.25l-.37.33s0,0,0,0c-.2.07,0,.23-.18.33s0-.13,0-.11c-.19-.15-.18.21-.38.24l0,0c-.14,0-.12.29-.24.44a0,0,0,0,0,0,0,2.4,2.4,0,0,1-.08.6c-.07-.09,0-.1-.12-.1s.15,0,.12.19-.14.14-.24.13l0-.16c-.15,0,0,.21-.09.28l-.05,0c0,.26.12.27.09.53l0,0c.13.14-.08.12,0,.25l-.14,0c0,.09.16.31.22.46-.12-.07-.2-.26-.27-.38a.73.73,0,0,0,.08.29.06.06,0,0,1,0-.05.64.64,0,0,1,.24.4c-.27,0,0,.44-.1.68a6.12,6.12,0,0,0,.65.91c0-.25.09.07.22-.11.07,0,.09.07.09.09h0l.12.27c0,.09-.1,0-.12,0,.14.13,0,.12.07.25,0-.08.12,0,.19,0l-.06-.17c.28.06.07.29.35.34h-.11a3,3,0,0,0,.45.21.55.55,0,0,0,.52-.16s.1.06,0,.1c.43-.09.68-.49,1-.62l0,.06c0-.05,0-.14.1-.15s0,.06,0,0,0-.17.13-.2v.09c.27-.15.24-.43.41-.62.11.12.32,0,.42-.06v0a3.88,3.88,0,0,0,.57-.75c.26,0,.57-.38.89-.51-.06,0-.07-.1,0-.15s.09-.22.18-.1h0c.13.08.23,0,.33-.12L88,54c.42,0,.6-.6.89-.5,0-.08.11-.14.14-.23l.06.09a2.48,2.48,0,0,0,.48-.33v.09c.12-.08,0-.35.09-.44l.12.1c.21-.16.5-.19.64-.45,0,0,0,.06,0,.09s.45-.18.29-.33c.08.11.23-.14.31-.27l0,.1c0-.17,0-.21.13-.33s.07,0,0,.06c.14,0,0-.14.19-.18v.09c.12-.07.09-.09.11-.19a.23.23,0,0,1,.3-.05.15.15,0,0,1,.09-.18.06.06,0,0,1,0,.07c.23-.06.22-.28.4-.28a.08.08,0,0,0,.05,0,2,2,0,0,1-.27.15c.05.08.18,0,.15.19.06-.12.15-.36.29-.39l0,0v0a.11.11,0,0,0,.07-.06l.11,0c.05.06.16-.05.23-.09s0-.12-.09-.15,0,0,0,0l0,0h0l-.15.1c0-.07,0-.14.15-.14v-.19c.16.07.36,0,.43.1.16-.16.43-.3.45-.53,0-.05.09,0,.13,0s-.06.05-.06.09.31-.2.27-.33c.17,0,0,.15.16,0v.05c.47,0,.44-.64,1-.62,0,0-.06,0-.07,0,.53-.15.93-.63,1.5-.69.15,0,.13-.12.18-.22l.08.08.09-.18c.15-.19.46,0,.62-.29l-.07,0c.09,0,.25-.22.28-.14s0-.09,0-.07l0,0,.16-.22c.19-.07.09.21.34.06.08-.08.17-.31.11-.32a.12.12,0,0,1-.15,0l.06-.08,0,0h0c-.07-.14-.12-.29-.35-.26L98,47l-.09,0,.1-.07c-.07,0-.1,0-.11.07a1.4,1.4,0,0,0-.5-.09h-.07v0l0,0-.14,0s0,0,0-.06-.09.06-.19,0,0,0,0,0l-.1.06s0-.1,0-.09c-.2-.06-.29.15-.37,0h0c-.2.06-.1.1-.13.18h-.11l-.12-.18V47s-.08,0-.08,0,0,0,0,.12c-.14-.08-.35.1-.4-.07,0,.09.13,0,0,.12C95.62,46.93,95.53,47.17,95.4,47.1Zm-2.56,3.71h0a.16.16,0,0,1,0,.05s-.06,0-.07,0Zm4.1-3.86s0,0,0,0h0Z"/><path class="cls-1" d="M81.61,54.41l0,.06S81.63,54.43,81.61,54.41Z"/><path class="cls-1" d="M92.85,50.69v0h0v0Z"/><polygon class="cls-1" points="92.39 47.59 92.41 47.6 92.4 47.59 92.39 47.59"/><path class="cls-1" d="M96,46.94s-.09-.08,0-.1c-.25-.08.06.08-.19.1Z"/><path class="cls-1" d="M95.24,46.88c-.06,0-.07.06,0,.08S95.24,46.91,95.24,46.88Z"/><path class="cls-1" d="M91.1,47.83v-.09C91,47.77,91.09,47.78,91.1,47.83Z"/><polygon class="cls-1" points="89.72 48.07 89.8 48.02 89.83 48 89.72 48.07"/><path class="cls-1" d="M83.28,51l.08.09S83.34,50.92,83.28,51Z"/><path class="cls-1" d="M81.55,53.92c0-.08.05-.15,0-.19A.12.12,0,0,0,81.55,53.92Z"/><polygon class="cls-1" points="88.21 54.12 88.28 54.02 88.23 54.05 88.21 54.12"/><path class="cls-1" d="M65.06,35.06v0l0,0Z"/><polygon class="cls-1" points="65.51 31.5 65.53 31.5 65.55 31.45 65.51 31.5"/><path class="cls-1" d="M73.44,43.1c-.14,0,0-.21-.14-.17C73.35,42.95,73.3,43.15,73.44,43.1Z"/><path class="cls-1" d="M68.19,42.62v0s0,0,0,0S68.16,42.61,68.19,42.62Z"/><polygon class="cls-1" points="68.83 43.1 68.83 43.07 68.81 43.06 68.83 43.1"/><path class="cls-1" d="M74.09,41.83c.05-.34-.25-.64-.2-.87H74s-.13-.05-.1-.13.06,0,.05,0-.13-.1-.13-.17l.08,0c0-.28-.3-.31-.42-.46.14-.07.11-.25.1-.35h0c-.09-.25-.31-.37-.47-.59.1-.22-.14-.53-.17-.81,0,0-.12,0-.15,0s-.17-.11,0-.16v0c.11-.1,0-.2,0-.3l-.18.07c.14-.37-.41-.56-.27-.81-.08,0-.12-.1-.2-.13l.09-.05a1.26,1.26,0,0,0-.28-.42H72c-.07-.11-.33.06-.41,0l.09-.13c-.14-.17-.22-.43-.48-.47,0,0,.05,0,.08,0s-.26-.35-.36-.15c.08-.12-.19-.14-.32-.16l.07-.07c-.16.05-.17.08-.31,0s0-.08,0,0-.12,0-.21-.07l.07,0c-.1-.06-.1,0-.19,0s-.15-.11-.11-.2-.13.08-.16,0a.07.07,0,0,1,.06,0c-.09-.15-.27-.05-.29-.21a.1.1,0,0,0,0-.06c.09.09.17.15.16.15s0-.15.13-.2c-.1,0-.31,0-.35-.07v0h0a.06.06,0,0,0-.06,0,.2.2,0,0,0,0-.08c0-.06,0-.11-.08-.16s-.11,0-.13.11,0,0,0,0h0l.09.09c-.07,0-.13,0-.12-.08l-.18,0c.06-.15,0-.31.1-.37-.14-.09-.24-.29-.45-.29,0,0,0-.07,0-.1s0,0,.07,0-.14-.23-.27-.2c0-.13.14,0,.06-.13h0c.09-.37-.5-.41-.46-.85,0,0,0,0,0,.07-.15-.48-.66-.66-.93-1-.09-.1-.15,0-.24,0l0-.11-.18,0c-.2,0-.18-.39-.46-.31v.08c-.07,0-.26-.05-.22-.13s-.05.06-.07,0l0-.06-.22,0c-.14-.09.1-.21-.12-.29s-.28.09-.26.13a.1.1,0,0,1,.06.12h-.08v0h0v0c-.06.14-.13.27,0,.42h0c0,.16,0,.31,0,.46h0l0,0v.11s0,0,0,0,.06.07,0,.15h0l0,.08s-.11,0-.09,0c-.08.15.12.23,0,.29h0c0,.15.08.09.15.11s0,.07,0,.1l-.18.07.11,0s0,.06-.06.05,0,0,.12,0c-.1.1,0,.28-.14.29.08,0,.07-.09.12,0-.19,0,0,.13-.08.21s0-.12-.13,0c.16.08-.06.17,0,.24a.07.07,0,0,1,.06.06s-.05,0-.06-.06h-.07s.09,0,.13.06,0,.16,0,.26-.12.23-.19.35h0c.13,0,.09.17.1.27a.15.15,0,0,1-.14-.09V35a.14.14,0,0,1,.07.12l-.1,0c0,.12.09.25,0,.4s.17,0,.24,0,0,0,0,.07-.07,0-.08,0,0,.05,0,.08l-.08-.07c0,.07.07,0,.06.09s-.05,0-.11,0,0,0,0-.07a.25.25,0,0,1-.12.16s.1,0,.1,0-.09,0-.13.11,0,.11.11.11,0,0-.08.06,0,.29.13.22v0h0c.1.19,0,.42,0,.61h0c0,.11.07.26.15.33s-.05.09-.1.09.08.09.05.23c-.08-.08-.05,0-.06-.08,0,.12-.05.16.07.26-.1,0-.09.12,0,.16l0-.1a.49.49,0,0,1,0,.17h-.12c-.08.29.37.35.19.61.1,0,0-.15.13-.13s-.1.28-.08.32.22.07.24.23a.14.14,0,0,1,.21,0c0,.11-.11.2-.17.15s0,0,0,0-.07-.06-.09,0h0c0,.07.06.21,0,.2.07.06.08,0,.07-.06,0,.16.09.21.13.36,0,0,0-.07.06-.05.06.22.12,0,.21.16s-.15.05,0,.15-.09.07-.14.06c.14.08.08.25.11.32l-.07,0a.24.24,0,0,1,.08.09l.05-.08s0,.07,0,.09.1-.1.22-.07.13.12,0,.2c-.06-.17-.09.08-.18,0a.14.14,0,0,1,.06.09s0,0,0,0c0,.2.15,0,.25.14-.07,0-.08.1-.05.12s.07-.09.15-.06.1.08.13.13l0-.07c.07,0,.09,0,.15.08s-.07,0-.07,0,0,.22.15.27-.09.08-.09.13,0,.17.16.24c0-.09,0-.08.15-.05l-.19-.14.19,0c0-.06-.13-.08-.15-.12s.08,0,.11-.05c0,.16.17.1.17.24L67,41.5c0,.19.27.16.37.36l0-.08c.08,0,.1.09.17.12s0,.09-.06.14.1.12.22,0v.13c.09.16.29,0,.39.14-.09,0-.07.11-.19.07,0,0,.07.09.1.05s.18,0,.17.12.09-.06.14,0a.06.06,0,0,1,0,0s.11,0,.12-.07c0,.29.39.28.41.53l.37.15s0,0,0,0,.18-.14.3,0-.11,0-.08.08c-.07.23.21.06.28.22h0c.07.11.25,0,.39,0a.06.06,0,0,0,0,0,1,1,0,0,1,.47-.12c-.05.09-.07,0-.06.14s0-.15.13-.16.12.1.13.21h-.12c.05.13.16,0,.22,0v.06c.19,0,.2-.16.39-.15l0,0c.1-.15.09.07.2,0l0,.14a2.93,2.93,0,0,1,.35-.21c-.05.12-.2.19-.29.26a.49.49,0,0,0,.22-.08s0,0,0,0a.42.42,0,0,1,.31-.22c0,.28.37,0,.54.15.22-.18.52-.15.8-.37-.22-.1.08-.07-.08-.23,0-.05.07-.07.08-.06h0l.26-.07c.09,0,0,.09,0,.12.14-.13.12,0,.25-.07-.08,0,0-.12,0-.2l-.17.07c0-.27.29-.1.29-.41l0,.11c0-.14.15-.52,0-.65C74,41.8,74.07,41.77,74.09,41.83Zm-4.71-7.07,0,0s0,0,0,.05l0,0Zm-3.83-2.06v0l0,0Z"/><path class="cls-1" d="M71.69,43.65l0,0S71.7,43.64,71.69,43.65Z"/><polygon class="cls-1" points="69.29 34.78 69.27 34.77 69.27 34.8 69.3 34.79 69.29 34.78"/><polygon class="cls-1" points="65.12 36.3 65.13 36.29 65.12 36.3 65.12 36.3"/><path class="cls-1" d="M65.39,33.56l0-.14s-.09.06-.1,0C65.2,33.58,65.41,33.37,65.39,33.56Z"/><path class="cls-1" d="M65.21,34c0,.05,0,.06.08,0S65.23,34,65.21,34Z"/><path class="cls-1" d="M65.16,37.36h-.09C65.09,37.43,65.1,37.37,65.16,37.36Z"/><polygon class="cls-1" points="65.25 38.43 65.23 38.41 65.3 38.5 65.25 38.43"/><path class="cls-1" d="M68.65,43.09l0-.11S68.57,43.07,68.65,43.09Z"/><path class="cls-1" d="M71.3,43.72c-.06,0-.12,0-.15,0S71.26,43.77,71.3,43.72Z"/><polygon class="cls-1" points="72.61 37.87 72.63 37.92 72.69 37.95 72.61 37.87"/><path class="cls-1" d="M90,36.7s.06,0,.1,0Z"/><path class="cls-1" d="M91.32,35.84h0v-.05Z"/><polygon class="cls-1" points="95.52 34.91 95.51 34.93 95.55 34.97 95.52 34.91"/><path class="cls-1" d="M83.12,47.53c-.12-.08.17-.13,0-.22C83.13,47.35,83,47.48,83.12,47.53Z"/><path class="cls-1" d="M83.79,42.4h0s0,0,0,0S83.8,42.36,83.79,42.4Z"/><polygon class="cls-1" points="83.29 43.11 83.25 43.14 83.27 43.14 83.29 43.11"/><path class="cls-1" d="M81.46,46.18s0-.06,0-.09A.39.39,0,0,0,81.46,46.18Z"/><path class="cls-1" d="M83,43.5c-.16.11.1.21-.08.33s0-.13-.06-.1-.11.22-.3.26v0c-.13,0-.07.27-.18.4l0,0a1.09,1.09,0,0,1-.12.53c-.05-.09,0-.09-.1-.11s.14.06.08.2-.16.08-.26,0l.07-.12c-.15,0-.09.16-.15.21l0,0c-.1.19,0,.27-.11.46h0c.05.18-.13,0-.1.22l-.15,0a2.38,2.38,0,0,0,0,.53.74.74,0,0,1-.1-.48.65.65,0,0,0,0,.32.07.07,0,0,1,0,0,1.82,1.82,0,0,1,.16.48c-.14,0-.13.16,0,.32s.23.29.24.42a2.53,2.53,0,0,0,1.13.28c-.13-.21.1,0,.07-.23.08,0,.11,0,.12,0h0l.25.11c.06.06-.07.06-.06.1.18,0,.08.09.21.14,0-.08.05-.12.16-.1l-.16-.09c.24-.15.24.16.48,0l-.07.08c.12-.06.49-.08.58-.28,0,0,.07.07,0,.1.32,0,.63-.36.9-.36v.06c.05,0,.06-.13.15-.11s0,.06,0,.05.11-.15.19-.16l0,.08c.32-.08.36-.36.55-.53.09.14.32,0,.44,0v0a2.16,2.16,0,0,0,.57-.81c.27,0,.5-.52.75-.7-.05,0-.1-.08-.08-.13s0-.23.14-.13l0,0c.15,0,.21-.1.28-.19l-.14-.13c.4-.07.41-.69.71-.67,0-.09.07-.16.08-.24l.08.07a2.12,2.12,0,0,0,.37-.42l0,.09c.1-.1-.11-.33,0-.43l.14.07c.16-.19.43-.29.48-.57,0,0,0,.05,0,.09s.38-.27.19-.38c.11.09.18-.18.22-.33l.06.08c0-.17,0-.2,0-.34s.08,0,0,0c.12-.06,0-.14.13-.22v.09c.09-.09.06-.11,0-.21a.22.22,0,0,1,.26-.12.14.14,0,0,1,0-.19.06.06,0,0,1,0,.07c.2-.12.12-.32.3-.37a.08.08,0,0,0,.06,0,1.57,1.57,0,0,1-.21.21c.07.06.17,0,.2.14,0-.13,0-.38.15-.45h0v0a.1.1,0,0,0,0-.07.34.34,0,0,0,.09-.07c.07,0,.14-.09.18-.14s0-.12-.13-.11,0,0,0,.06v0h0l-.11.14c0-.08,0-.15.09-.17l-.06-.18c.17,0,.35-.07.43,0,.09-.2.29-.41.23-.63,0-.06.09,0,.12,0s0,.07,0,.1c0-.12.2-.29.12-.4.14-.08,0,.15.15,0v0c.42-.19.14-.75.63-.93,0,0,0,0-.07,0,.41-.34.56-.92,1-1.21.12-.09.06-.16.06-.27l.11,0v-.2c.06-.23.44-.13.47-.45l-.08,0c.07-.07.15-.27.21-.21s0-.07,0-.08l0,0,.07-.25c.15-.12.16.16.34,0s0-.33,0-.32a.11.11,0,0,1-.14,0l0-.09,0,0h0c-.11-.11-.21-.23-.41-.13v.07c-.36-.06-.47-.1-.57-.07l-.06,0v0l0,0-.12,0a.06.06,0,0,1,0-.07c-.12,0-.07.08-.18,0s0,0,0,0l-.08.08s-.05-.09,0-.1c-.2,0-.23.21-.34.12h0c-.18.11-.06.12-.08.22l-.08,0L93.39,35l0,.11s-.08,0-.08,0c-.06.11,0,0,0,.13s-.3.18-.39,0c0,.1.13,0,0,.12-.11-.16-.13.09-.27.06s.11-.1,0-.13c0,.18-.22.05-.29.12a.07.07,0,0,1,0,.09.1.1,0,0,1,0-.09l0-.06s0,.1,0,.15-.18.09-.27.17-.3.07-.46.09v0c0,.13-.12.18-.2.25a.14.14,0,0,1,0-.17l-.1,0a.17.17,0,0,1-.07.13l0-.1c-.12.07-.19.24-.38.27,0,.06.14.12.16.2l-.08,0s0-.07,0-.09,0,.07-.07.06l0-.11c-.09,0,0,.08-.06.11s-.07,0-.09-.07.07,0,.07,0a.3.3,0,0,1-.22,0s0,.08,0,.12-.09-.05-.18,0-.11.06-.05.16-.07,0-.1,0-.28.2-.15.25h0c-.14.22-.45.21-.62.39l0,0c-.09.12-.24.2-.28.32s-.12,0-.13,0-.06.12-.22.17c.05-.11-.06,0,.06-.1-.13.06-.19,0-.26.2,0-.11-.15,0-.19,0h.12a.68.68,0,0,1-.17.13l0-.12c-.32.07-.25.52-.58.47,0,.11.16-.05.17.07s-.33,0-.36.05,0,.25-.19.34a.13.13,0,0,1,.06.21c-.11.07-.24,0-.2-.11s0,0,.05,0,.05-.09,0-.09l0,0c-.08,0-.21.13-.23.05,0,.1,0,.08.09,0-.17.07-.2.17-.36.26,0,0,.09,0,.07,0-.22.14,0,.14-.14.27s-.08-.14-.17,0-.1-.07-.09-.12c-.06.17-.26.17-.33.22l0-.08a.32.32,0,0,1-.08.11l.1,0s-.08.05-.1,0,.13.07.11.2-.11.18-.2.11c.17-.12-.1-.06,0-.2a.19.19,0,0,1-.09.09s0,0,0,0c-.21.07,0,.16-.12.3a.08.08,0,0,0-.14,0c.06-.06.11,0,.09.14s-.07.13-.12.18l.07,0c0,.06,0,.11-.07.19s0-.08,0-.08-.24.09-.28.25-.09-.08-.15-.05c0,.18-.18.07-.24.24.1,0,.09,0,.07.15l.14-.25,0,.22c.06-.06.08-.17.12-.2s0,.09.07.11c-.17,0-.09.22-.25.26l-.16-.14c-.21.09-.15.34-.35.5l.08,0c0,.08-.09.13-.12.22s-.1,0-.16,0-.12.14,0,.25l-.15,0c-.16.14,0,.31-.13.45,0-.1-.12-.05-.08-.2,0,.05-.09.09,0,.12s0,.21-.13.21.06.09,0,.15a0,0,0,0,1,0,0s0,.12.07.12c-.31,0-.33.46-.59.5a4,4,0,0,1-.22.4S83,43.52,83,43.5Zm8.85-3.33h0l0,0s0,0-.06,0Zm2.21-5.29s0,0,0,0l0,0ZM91.54,36h0Z"/><path class="cls-1" d="M91.87,40.06v0h0v0Z"/><polygon class="cls-1" points="90.11 36.68 90.13 36.68 90.11 36.68 90.11 36.68"/><path class="cls-1" d="M93.25,35.07s-.1-.06,0-.1c-.26,0,.08.06-.15.14Z"/><path class="cls-1" d="M92.5,35.21c0,.06-.05.07,0,.07S92.51,35.23,92.5,35.21Z"/><path class="cls-1" d="M89,37.24c-.05.05,0,0,0,.08Z"/><polygon class="cls-1" points="87.86 38 87.92 37.92 87.94 37.89 87.86 38"/><path class="cls-1" d="M83.28,42.95l.11,0C83.39,42.94,83.3,42.86,83.28,42.95Z"/><path class="cls-1" d="M81.62,45.58c0-.06.12-.09.12-.12S81.6,45.5,81.62,45.58Z"/><polygon class="cls-1" points="88.44 44.39 88.48 44.28 88.44 44.32 88.44 44.39"/><path class="cls-2" d="M152.05,39.26a2.35,2.35,0,0,0,.34-3.14c-.15-.27-.24-.79-.09-1,1.3-1.48.81-2.65-.8-3.81,2-1.31,1.68-3.07,1.35-4.93-.07-.41.72-1.38,1.08-1.36a4.44,4.44,0,0,1,2.12.93c.2.14.17.78.09,1.16-.33,1.53.15,2.32,1.8,2.37.33,0,.66.48,1,.73a5.12,5.12,0,0,1-.93.86c-.39.22-.88.23-1.3.41a1.46,1.46,0,0,0-.31,2.71c1.14.67,1.25,1.06,0,1.64s-1.61,1.58-.73,2.79a1.5,1.5,0,0,1,.06,1.88,7.22,7.22,0,0,0-.3,2.47c.89-.07,2.18.2,2.61-.29a16.55,16.55,0,0,0,2.53-4.22c.75-1.71,1.71-2.38,3.48-2s2.47,2.17,1.14,3.43c-2,1.88-4.12,3.56-6.22,5.29a1.78,1.78,0,0,1-1.1.45c-3.71-.24-7,1.35-10.42,2.4-5,1.55-9.87,3.6-14.74,5.58-2.81,1.15-4.44.48-4.85-2.56a22.15,22.15,0,0,1,.12-5.11,3.22,3.22,0,0,1,1-1.81c1.32-1.25,2.54-.87,3,.87.26.92.38,1.89.66,2.8a1.9,1.9,0,0,0,2.45,1.45c3.14-.76,6.29-1.53,9.42-2.35,1.21-.32,1.9-2.68,1.14-3.71a1,1,0,0,0-.76-.28c-.28,0-.69.22-.77.43-.87,2.36-3.06,2.31-5,2.74a7.09,7.09,0,0,1-2.52.16c-.36-.05-.81-.72-.86-1.15,0-.27.58-.68,1-.9.23-.13.6,0,.9-.05,2.24-.26,3.12-1.3,3-3.53a3,3,0,0,0,0-.3c-.29-2,.21-4.57-3.08-4.4,0-.3,0-.46,0-.48,1.69-.91,1.89-2.26,1.29-4-.12-.36.31-.91.48-1.37.89.35,2,.47,2.59,1.11a9.8,9.8,0,0,1,1.51,3.19,1.39,1.39,0,0,1-.27,1.21,3.63,3.63,0,0,0-.85,3.39,2.16,2.16,0,0,0,.78,1.48,1.56,1.56,0,0,0,1.45-.44,5,5,0,0,0,1.21-2.58c0-2.67-.34-5.35-.63-8a3.76,3.76,0,0,0-.73-1.63c-1.07-1.53-1-2.29.53-3.39a2.64,2.64,0,0,1,3.86.54,5.33,5.33,0,0,1,.69,2.43c0,5-.08,9.91-.08,14.86,0,1-.42,2.52,1.18,2.68s1.87-1.22,1.93-2.4A19.86,19.86,0,0,0,152.05,39.26Z"/><path class="cls-2" d="M203.63,65.56a8.12,8.12,0,0,1,2,0,20,20,0,0,1,3.77,1.36,1.77,1.77,0,0,1,.55,1.56,1.62,1.62,0,0,1-1.21.91q-4.15.31-8.31.41a1.75,1.75,0,0,1-2-1.52,1.87,1.87,0,0,1,1.22-2,2.84,2.84,0,0,0,.54-4.55c-1-1-1.07-1.73.1-2.63s1.66-1.79.43-3.1c-.34-.36-.25-1.22-.19-1.84s.46-.93.51-1.41a12.5,12.5,0,0,0-.1-2c-.75.15-1.69.06-2.21.49a7.14,7.14,0,0,0-2.36,5.56c-.12,4.58,0,9.16,0,13.74,0,.9,0,1.81-1.14,2a1.81,1.81,0,0,1-2.32-1.43,16.58,16.58,0,0,1-.25-3.76c.14-3.28.22-6.58.62-9.84a34.21,34.21,0,0,1,1.6-6.45c.68-2.06,1.63-4,2.45-6a6.26,6.26,0,0,0,.17-1.14c-1.82,1.36-3.42,2.43-4,4.53-.4,1.56-1.32,2.18-2.44,1.82a2.56,2.56,0,0,1-1.8-3.27,27.57,27.57,0,0,1,2.07-3.85c.29-.45,1.1-1,1.46-.9,2.5.84,4.38-.91,6.56-1.35a4.42,4.42,0,0,1,1.9-.12c2,.52,2.24,1.32,1.15,3.06-.59.94-1.2,1.87-1.79,2.81,0,.06,0,.18,0,0A32.92,32.92,0,0,1,205,46c.58,0,1.66.68,1.68,1.09a3.78,3.78,0,0,1-.94,2.23c-.49.62-1.93.47-1.55,1.84a2,2,0,0,0,2.41,1.54c1.06-.07,1.32.68.84,1.53a14.73,14.73,0,0,1-1.8,2.6c-.68.76-.7,1.24.16,1.82a10.11,10.11,0,0,1,2,1.65c.67.78.42,1.35-.52,1.9-1.37.82-2.6,1.87-3.89,2.83Z"/><path class="cls-2" d="M172,54.11c0-3,0-6.07,0-9.1,0-2.85.67-3.3,3.34-2.45a3.11,3.11,0,0,0,3.87-2.31c.19-1.2.35-2.4.52-3.61.14-1-.25-1.56-1.33-1.5s-2.14.07-2.48-1.19.57-2,1.5-2.54a17.55,17.55,0,0,1,3.53-1.71,2.67,2.67,0,0,1,3.66,3.13c-.49,3-1.26,5.93-1.78,8.91-.46,2.66-.77,5.36-1,8a1.68,1.68,0,0,0,.83,1.33,1.57,1.57,0,0,1,1,2.32c-.3.79-.79,1.52-1.16,2.29a15.28,15.28,0,0,0-.91,2.06c-.25.79-.12,2-1.33,1.84a2.66,2.66,0,0,1-2.59-2,5.34,5.34,0,0,1,.16-1.93c.43-2.58.91-5.15,1.29-7.74,0-.25-.45-.62-.75-.86-.11-.09-.39.08-.59.05-.58-.06-1.15-.16-1.72-.25a9.11,9.11,0,0,0-.28,2.2c.29,2.5.76,5,1,7.49a6.62,6.62,0,0,1-.3,3.31,2.55,2.55,0,0,1-2.28.92,2.8,2.8,0,0,1-1.53-1.91,37.7,37.7,0,0,1-.46-4.82Z"/><path class="cls-2" d="M153.59,66c1.65.28,3.12.57,4.61.76s2.55,1.09,2.42,2.48-1.18,1.94-2.89,1.65a30.43,30.43,0,0,0-12.92.68,21,21,0,0,1-4.17.67,4.61,4.61,0,0,1-2.43-.65c-.52-.31-.76-1.07-1.13-1.63.65-.4,1.26-1.06,1.94-1.16a19.58,19.58,0,0,1,3.47.12,3.66,3.66,0,0,0,3.51-2.2,6,6,0,0,0,.29-1.28,15.45,15.45,0,0,1-2.16.78,2.55,2.55,0,0,1-1.69-.09c-.28-.18-.35-1.06-.18-1.5a4.37,4.37,0,0,0-.34-3.89c-.8-1.54,0-4.33,1.61-5.45a19.64,19.64,0,0,0,.35,3A7.39,7.39,0,0,0,145,60.09,25.62,25.62,0,0,0,147.46,58c.09-.1-.55-.92-.93-1.53,1.76-1,3.48-2.16,5.3-3.09a1.87,1.87,0,0,1,1.75.31c.3.33.11,1.17,0,1.77a9.13,9.13,0,0,1-.62,2,7.63,7.63,0,0,1-1.06,1.91c-.72.85-.76,1.44.27,2.06,1.69,1,1.8,1.61.7,3.24-.34.5-.8.93-1.09,1.45a4.56,4.56,0,0,0-.29,1.25c.38.07.81.3,1.12.19a2.64,2.64,0,0,0,1-.86C153.76,66.54,153.61,66.21,153.59,66Z"/><path class="cls-2" d="M199.4,28a24.21,24.21,0,0,1,1.85-2.14,7.59,7.59,0,0,1,6.41-2.08c1.38.19,2.21,1,2,2.38-.68,3.77-1.15,7.67-4,10.61a3,3,0,0,1-2.33.83c-.54-.09-.94-1.11-1.66-2.07-.87-.19-.87-.19-2.21-3.33a11.52,11.52,0,0,1-.85,1.5c-1.66,2.07-3.28,4.19-5.07,6.15-.88,1-2.63.31-3.52-1.08a2,2,0,0,1,.91-2.71c.51-.33,1-.63,1.27-.78a16.48,16.48,0,0,1-2.12-2.54c-.14-.26.59-1.45.93-1.46a22.39,22.39,0,0,1,3.75.55c1.07-1.16.67-2.42-1.27-3-.55-.17-1.36-.9-1.31-1.28A2.34,2.34,0,0,1,193.41,26a4.58,4.58,0,0,1,2.8-.39,14.17,14.17,0,0,1,3.12,1.86Zm6.14-.94a5.28,5.28,0,0,0-4.61,3.08c1.09.3,2.21.65,3.35.89.27.06.87-.23.9-.42C205.36,29.47,205.42,28.3,205.53,27.09Z"/><path class="cls-2" d="M143.51,52.6c2.64-1.35,4.92-2.56,7.51-3a1.65,1.65,0,0,1,1.13.55c.11.1-.06.67-.26.9C150.41,52.69,146.12,53.63,143.51,52.6Z"/><path class="cls-2" d="M137.85,38.85l1.29,1-1.28,1.31c-.36-.36-.91-.67-1-1.09S137.42,39.33,137.85,38.85Z"/><path class="cls-3" d="M133.36,90.37h-.63V81.43h2.6v.62a21,21,0,0,1-.89,2.47,2.77,2.77,0,0,1,.86,2.91,1,1,0,0,1-.68.61,2.39,2.39,0,0,1-.86,0c-.05-.23-.08-.47-.15-.69.33,0,.85.31,1-.09a2,2,0,0,0-.49-2.16,4.59,4.59,0,0,0-.46-.44,17.47,17.47,0,0,0,1-2.6h-1.32Zm3.36-7.72a6.72,6.72,0,0,1-1.25,1.55l-.55-.37a5.19,5.19,0,0,0,1.77-2.91l.58.18A8.84,8.84,0,0,1,137,82h4v2.39L141,86.29l-.13,1.93c-.05.74,0,1.73-.81,2.05a3.39,3.39,0,0,1-1.55-.05c-.07-.24-.12-.46-.19-.7a7.79,7.79,0,0,0,1.23.22.58.58,0,0,0,.47-.28l.07-.18.14-1.14.1-1.61.06-1.29,0-2.22v-.37Zm2.37,6.17H136V87h.63V88.2h.92V86.39h-1.91v-.61h1.92V84.49h-.58a4.71,4.71,0,0,1-.85,1c-.2-.09-.4-.21-.59-.32A3.57,3.57,0,0,0,136.85,83a4.63,4.63,0,0,1,.57.17,5.06,5.06,0,0,1-.17.66h2.12v.62h-1.24v1.29H140v.61h-1.83V88.2h1V87h.6v2.27h-.59Z"/><path class="cls-3" d="M147.38,85.05v.42h-1.27a.43.43,0,0,1-.43-.41v-.39h-.78c-.29.8-1.25,1-2.06,1.07l-.14-.53a2.23,2.23,0,0,0,1.6-.54h-1.46v-.5h2v-.41h-1.65v-.46h1.64v-.47h-.21v-.55h-2.16V81.8h2.16v-.73h.61v.73h1.61v.52h-1.6v.55h.2v.47h1.64v.46h-1.63v.41h2.06v.49h-1.31v.21c0,.1.08.18.29.16Zm3.43,5.35a2.38,2.38,0,0,0-.59-.53l-5.5.41-.92.11-.29-.49c.14-.08.33-.1.48-.18a5.69,5.69,0,0,0,1.6-.81l-2.89,0v-.56h9v.56h-2.24a4.88,4.88,0,0,1,1.89,1.18Zm-5.3-4.21v.49l1.85-.09V87l-4.37.22c-.09-.15-.18-.31-.26-.47.71,0,1.45,0,2.14-.05v-.51h-1.59v-.45h1.59v-.49h.61v.49h1.63v.44ZM144.06,88v-.5h6.14V88Zm5.49,1.53-.32-.16c-.17-.08-.35-.06-.5-.14l.4-.28-2.7,0a4,4,0,0,1-1.21.84Zm2.25-3.65a4.4,4.4,0,0,1-.28,1,.74.74,0,0,1-.53.4.63.63,0,0,1-.55-.23c-.19-.21-.15-.54-.21-.78a19.48,19.48,0,0,1,0-2.08h-.67a6.11,6.11,0,0,1-.18,1.24c.2.23.47.4.67.65l-.4.43a2,2,0,0,0-.5-.49A3.42,3.42,0,0,1,148,87.14l-.47-.53a2,2,0,0,0,1.15-1,4.3,4.3,0,0,0-.84-.37l.35-.4a2.93,2.93,0,0,1,.68.24,6.78,6.78,0,0,0,.11-.92h-1.1v-.55h1.1v-.75h-.18v-.53h-1.44V81.8h1.43V81h.62v.75h2.35v.52h-2.36v.53h.2v.75h1.28l-.06,1.27c0,.3,0,.61,0,.94a3.3,3.3,0,0,0,.09.73c0,.06.09.05.15,0a2.75,2.75,0,0,0,.21-1Z"/><path class="cls-3" d="M158,81.77a2.51,2.51,0,0,0-.84-.63l-.06,0,.53-.46a2.64,2.64,0,0,1,1.1,1.11h3.57v.6h-7.8l0,4.89a4.75,4.75,0,0,1-1,3c-.2-.14-.37-.28-.57-.4a5.51,5.51,0,0,0,.95-3.58V81.76Zm.53,1.8v3.59H155.9v2c.55-.21,1.09-.45,1.63-.68a3,3,0,0,0-.75-.66l.47-.38a4.19,4.19,0,0,1,1.6,2.23c-.18.14-.35.26-.55.39A4,4,0,0,0,157.9,89h-.08l-2.37,1a.51.51,0,0,1-.18.07l-.51-.4c.66-.41.49-1.25.49-1.94V83.57h1.47a1.91,1.91,0,0,0-.73-.71l.51-.42a3,3,0,0,1,.92,1.12Zm-.65,2h-2v.93h2Zm0-1.45h-2V85h2Zm1.95-.35v6.56h-.65V83.19h2.89v.72c-.29.67-.66,1.29-1,2a2.51,2.51,0,0,1,1.07,2.36,1.16,1.16,0,0,1-.85.83,2.07,2.07,0,0,1-1.16-.15l-.12-.68c.38.1.84.4,1.26.16a.71.71,0,0,0,.31-.61,1.76,1.76,0,0,0-.55-1.09,3.77,3.77,0,0,0-.72-.69l1.09-2.2Z"/><path class="cls-3" d="M180.54,83.44a7.7,7.7,0,0,0,4.23,2.6l-.38.59A8.48,8.48,0,0,1,180.12,84a10.17,10.17,0,0,1-4.25,2.63l-.44-.58a8.87,8.87,0,0,0,4.78-3.23l.55.3Zm-2.12-.82v1.12h-.66V82.62H175.6V82h2.15V80.9h.66V82h1.44v.61Zm-2.68,6.73a5,5,0,0,0,2.74-2l.47.38a5.13,5.13,0,0,1-2.69,2.13ZM179.92,87h-2.86v-.6h2.86V84.91h.65v1.45h2.6V87h-2.6v3.35h-.65Zm2.53-5h2.13v.61h-2.13v1.14h-.66V82.62h-1.4V82h1.4V80.93h.66Zm1.63,7.87a8.5,8.5,0,0,0-1-1.06,5.32,5.32,0,0,0-1.76-1.05l.41-.45a6.1,6.1,0,0,1,2.82,2.08Z"/><path class="cls-3" d="M190.68,83.55a3,3,0,0,1-1.1,2c-.18.1-.33.27-.53.36,0,0,0,0-.06,0a4.62,4.62,0,0,1-1.58.51c-.13-.22-.24-.45-.36-.67a3.57,3.57,0,0,0,2.42-1,2.53,2.53,0,0,0,.59-1.44Zm5,6.21h-8.58v-.61h4v-1.7h-2.9v-.61h6.5v.61h-2.88v1.71h3.91Zm-7.62-5.15h-.65V82.32h4a3.29,3.29,0,0,0-1.34-1.08c.2-.16.43-.27.63-.43a3.59,3.59,0,0,1,.95.7,3.89,3.89,0,0,1,.48.56l-.38.23,3.65,0,0,2.24h-.65V82.93H188.1Zm4.83,1.2a.81.81,0,0,1-.64-.34.85.85,0,0,1-.17-.53V83.55h.67v1.33a.37.37,0,0,0,.25.31h2.48v.61Z"/><path class="cls-3" d="M197.93,90.41V81.46h3.57v3.23h-2.92v5.72Zm.65-8.36v.7h2.3v-.7Zm0,1.27v.77h2.3v-.77ZM204,85.42v3.53h-4V85.42Zm-3.42.58v.85h2.8V86Zm0,1.43v.94h2.8v-.94ZM206,89.48c0,.46-.22.78-.7.78h-1.08L204,89.6a7.56,7.56,0,0,0,1.09.05.28.28,0,0,0,.3-.27V84.69h-2.9V81.46H206Zm-2.92-7.42v.68h2.28v-.68Zm0,2h2.28v-.77h-2.28Z"/><rect class="cls-4" x="128" y="76.76" width="82" height="0.8"/><path class="cls-3" d="M170.61,85.89a.9.9,0,0,1-.8.46.91.91,0,0,1-.74-.42.89.89,0,0,1,.88-1.36.89.89,0,0,1,.66,1.31Z"/><path class="cls-1" d="M60.27,83.1l-.16,0a.31.31,0,0,1-.2-.05.38.38,0,0,1-.1-.12,2.18,2.18,0,0,0-.66-.89,1.76,1.76,0,0,0-1-.28,1.67,1.67,0,0,0-.49.07,1.21,1.21,0,0,0-.4.2,1,1,0,0,0-.27.33.9.9,0,0,0-.1.43,1,1,0,0,0,.42.82,5.52,5.52,0,0,0,1.25.65,4.36,4.36,0,0,1,1.51.9,1.68,1.68,0,0,1,.49,1.22,2.46,2.46,0,0,1-.13.82,1.75,1.75,0,0,1-.42.66,1.94,1.94,0,0,1-.73.44,3.23,3.23,0,0,1-1.08.16,4.82,4.82,0,0,1-1.2-.14A3.42,3.42,0,0,1,56,88q0-.45-.1-.87t-.15-.83a.47.47,0,0,1,.18,0,.3.3,0,0,1,.2.06.49.49,0,0,1,.12.19A2.57,2.57,0,0,0,57,87.64a1.75,1.75,0,0,0,1.18.36,1.7,1.7,0,0,0,.6-.1,1.18,1.18,0,0,0,.43-.27,1.12,1.12,0,0,0,.26-.38,1.22,1.22,0,0,0,.09-.46,1.09,1.09,0,0,0-.38-.88,3.59,3.59,0,0,0-1.09-.58,8.58,8.58,0,0,1-.83-.36,2.77,2.77,0,0,1-.64-.43,1.7,1.7,0,0,1-.41-.57,2.07,2.07,0,0,1,0-1.52,1.72,1.72,0,0,1,.42-.6,2,2,0,0,1,.66-.41,2.38,2.38,0,0,1,.87-.15,4.67,4.67,0,0,1,1,.1,6.68,6.68,0,0,1,1,.32q0,.32.06.69T60.27,83.1Z"/><path class="cls-1" d="M68.42,87.62a.31.31,0,0,0,.14.29,2.17,2.17,0,0,0,.56.17.13.13,0,0,1,.11.15,1,1,0,0,1,0,.19l-.63,0-.65,0-.63,0-.66,0a1,1,0,0,1,0-.19c0-.09,0-.14.11-.15a1.93,1.93,0,0,0,.55-.16.32.32,0,0,0,.15-.3V85H64.06v2.59a.31.31,0,0,0,.14.29,2.18,2.18,0,0,0,.56.17.13.13,0,0,1,.12.15,1,1,0,0,1,0,.19l-.64,0-.65,0-.63,0-.66,0a1,1,0,0,1,0-.19c0-.09,0-.14.11-.15a2,2,0,0,0,.56-.16.32.32,0,0,0,.15-.3V82.19A.49.49,0,0,0,63,82a.28.28,0,0,0-.1-.12.67.67,0,0,0-.21-.09l-.35-.08c-.07,0-.11-.06-.11-.17a1,1,0,0,1,0-.18l.62,0,.64,0,.63,0,.65,0a.91.91,0,0,1,0,.18c0,.1,0,.16-.11.17a1.43,1.43,0,0,0-.55.16.35.35,0,0,0-.13.31v2.39h3.36V82.19a.37.37,0,0,0-.13-.29,1.18,1.18,0,0,0-.55-.18c-.08,0-.12-.06-.12-.17a1,1,0,0,1,0-.18l.62,0,.64,0,.62,0,.66,0a1,1,0,0,1,0,.18c0,.1,0,.16-.11.17a1.44,1.44,0,0,0-.55.16.36.36,0,0,0-.13.31Z"/><path class="cls-1" d="M72.68,87.62a.3.3,0,0,0,.15.29,2.38,2.38,0,0,0,.56.17c.07,0,.11.07.11.17a.93.93,0,0,1,0,.17l-.66,0-.63,0-.64,0-.66,0a.93.93,0,0,1,0-.17c0-.1,0-.16.11-.17a2,2,0,0,0,.56-.16.32.32,0,0,0,.15-.3V82.18a.33.33,0,0,0-.15-.3,1.72,1.72,0,0,0-.56-.16.1.1,0,0,1-.09-.06.32.32,0,0,1,0-.12.93.93,0,0,1,0-.17l.67,0,.63,0,.61,0,.68,0a.93.93,0,0,1,0,.17c0,.11,0,.17-.11.18a1.71,1.71,0,0,0-.56.16.33.33,0,0,0-.15.3Z"/><path class="cls-1" d="M80.64,86.67V82.2a.35.35,0,0,0-.17-.33,1.74,1.74,0,0,0-.58-.15q-.12,0-.12-.18a.93.93,0,0,1,0-.17l.55,0,.52,0,.49,0,.5,0a.93.93,0,0,1,0,.17c0,.11,0,.17-.11.18a1.23,1.23,0,0,0-.5.15.36.36,0,0,0-.13.31v6.3l-.07,0H81a.27.27,0,0,1-.14,0,.56.56,0,0,1-.15-.16l-4.34-5.72v5a.32.32,0,0,0,.15.3,2,2,0,0,0,.58.16c.07,0,.11.07.11.17a.93.93,0,0,1,0,.17l-.54,0-.51,0-.5,0-.52,0a.87.87,0,0,1,0-.17c0-.1,0-.16.12-.17a1.66,1.66,0,0,0,.52-.16.33.33,0,0,0,.13-.3v-5.5a.31.31,0,0,0-.12-.26,1.26,1.26,0,0,0-.51-.14c-.08,0-.12-.07-.12-.18a.4.4,0,0,1,0-.1.32.32,0,0,1,0-.07l.41,0,.36,0h.34a2.51,2.51,0,0,1,.41,0,.27.27,0,0,1,.17.11Z"/><path class="cls-1" d="M85.27,87.62a.3.3,0,0,0,.15.29,2.38,2.38,0,0,0,.56.17c.07,0,.11.07.11.17a.93.93,0,0,1,0,.17l-.66,0-.63,0-.64,0-.66,0a.93.93,0,0,1,0-.17c0-.1,0-.16.11-.17a2,2,0,0,0,.56-.16.32.32,0,0,0,.15-.3V82.18a.33.33,0,0,0-.15-.3,1.72,1.72,0,0,0-.56-.16.1.1,0,0,1-.09-.06.32.32,0,0,1,0-.12.93.93,0,0,1,0-.17l.67,0,.63,0,.61,0,.68,0a.93.93,0,0,1,0,.17c0,.11,0,.17-.11.18a1.71,1.71,0,0,0-.56.16.33.33,0,0,0-.15.3Z"/><path class="cls-1" d="M93.23,86.67V82.2a.35.35,0,0,0-.17-.33,1.74,1.74,0,0,0-.58-.15q-.12,0-.12-.18a.93.93,0,0,1,0-.17l.55,0,.52,0,.49,0,.5,0a.93.93,0,0,1,0,.17c0,.11,0,.17-.11.18a1.23,1.23,0,0,0-.5.15.36.36,0,0,0-.13.31v6.3l-.07,0h-.09a.27.27,0,0,1-.14,0,.56.56,0,0,1-.15-.16l-4.34-5.72v5a.32.32,0,0,0,.15.3,2,2,0,0,0,.58.16c.07,0,.11.07.11.17a.93.93,0,0,1,0,.17l-.54,0-.51,0-.5,0-.52,0a.87.87,0,0,1,0-.17c0-.1,0-.16.12-.17a1.66,1.66,0,0,0,.52-.16.33.33,0,0,0,.13-.3v-5.5a.31.31,0,0,0-.12-.26,1.26,1.26,0,0,0-.51-.14c-.08,0-.12-.07-.12-.18a.4.4,0,0,1,0-.1.32.32,0,0,1,0-.07l.41,0,.36,0h.34a2.51,2.51,0,0,1,.41,0,.27.27,0,0,1,.17.11Z"/><path class="cls-1" d="M101.7,88.32q-.48.08-1,.13t-1.18,0a4.21,4.21,0,0,1-1.6-.28,3.15,3.15,0,0,1-1.13-.76,3.07,3.07,0,0,1-.67-1.14,4.48,4.48,0,0,1-.22-1.43,3.93,3.93,0,0,1,.22-1.28,3.39,3.39,0,0,1,1.78-2,3.57,3.57,0,0,1,1.57-.33l.62,0,.58.06.58.1.64.14q0,.37.08.78c0,.27.09.53.16.79l-.09,0H102a.2.2,0,0,1-.21-.14,1.71,1.71,0,0,0-.65-1,2.34,2.34,0,0,0-1.31-.31,3,3,0,0,0-1.2.22,2.34,2.34,0,0,0-.85.61,2.61,2.61,0,0,0-.51.93,3.87,3.87,0,0,0-.17,1.17A4,4,0,0,0,97.27,86a3.38,3.38,0,0,0,.6,1.07,2.65,2.65,0,0,0,.9.7,2.6,2.6,0,0,0,1.13.25,4.7,4.7,0,0,0,.63,0,3.44,3.44,0,0,0,.53-.11V86.27a.44.44,0,0,0-.17-.4,1.45,1.45,0,0,0-.58-.17.14.14,0,0,1-.12-.07.28.28,0,0,1,0-.13.71.71,0,0,1,0-.17l.68,0,.65,0,.64,0,.63,0a.93.93,0,0,1,0,.17.21.21,0,0,1,0,.14.18.18,0,0,1-.09,0,1,1,0,0,0-.48.14.37.37,0,0,0-.13.32v1.9a.25.25,0,0,1-.05.16A.57.57,0,0,1,101.7,88.32Z"/></g></g></svg>