<svg xmlns="http://www.w3.org/2000/svg" viewBox="0 0 17.38 17.37"><defs><style>.cls-1{fill:#231815;}</style></defs><title>資產 9map</title><g id="圖層_2" data-name="圖層 2"><g id="圖層_1-2" data-name="圖層 1"><path class="cls-1" d="M11.5,9.91q0,3.46,0,6.92c0,.53-.2.65-.66.42C9.3,16.49,7.76,15.71,6.22,15a.55.55,0,0,1-.35-.58q0-6.94,0-13.88c0-.5.21-.62.66-.4l4.66,2.32A.52.52,0,0,1,11.5,3Q11.49,6.45,11.5,9.91Z"/><path class="cls-1" d="M12.08,9.88c0-2.32,0-4.64,0-7a.49.49,0,0,1,.29-.51L16.61.16A1.43,1.43,0,0,1,16.92,0a.32.32,0,0,1,.45.32,3,3,0,0,1,0,.31c0,4.5,0,9,0,13.51a.86.86,0,0,1-.54.9c-1.34.68-2.65,1.4-4,2.11a2.75,2.75,0,0,1-.3.16c-.29.11-.49,0-.49-.33,0-.58,0-1.15,0-1.73Q12.08,12.57,12.08,9.88Z"/><path class="cls-1" d="M5.3,7.44c0,2.33,0,4.66,0,7a.49.49,0,0,1-.29.51c-1.45.76-2.88,1.53-4.33,2.3-.46.25-.67.13-.68-.39q0-5,0-10C0,5.57,0,4.27,0,3A.57.57,0,0,1,.35,2.4C1.77,1.65,3.19.89,4.6.14A1,1,0,0,1,4.94,0a.28.28,0,0,1,.35.29c0,.08,0,.16,0,.25Q5.3,4,5.3,7.44Z"/></g></g></svg>