<svg xmlns="http://www.w3.org/2000/svg" viewBox="0 0 35.16 30.33"><defs><style>.cls-1{fill:#fff;}</style></defs><title>資產 1minilogo</title><g id="圖層_2" data-name="圖層 2"><g id="圖層_1-2" data-name="圖層 1"><path class="cls-1" d="M9.52,28.27l.18.07Z"/><path class="cls-1" d="M.09,16.32a2.07,2.07,0,0,0,0-.45Z"/><path class="cls-1" d="M1.48,8.74l.06-.12,0-.11Z"/><path class="cls-1" d="M4.65,4.37a1.15,1.15,0,0,1,.16-.23s0,0-.07,0A.36.36,0,0,0,4.65,4.37Z"/><path class="cls-1" d="M19,1l-.08,0s0,0,0,0Z"/><path class="cls-1" d="M17.47,30.31h0C17.31,30.32,17.39,30.32,17.47,30.31Z"/><path class="cls-1" d="M19.72,3.83c.22-.18.06,0-.06.14a1.11,1.11,0,0,0-.12.18s.07-.06.21-.19C19.67,4,20.26,3.38,19.72,3.83Z"/><path class="cls-1" d="M28.62,26.6l.11-.06Z"/><path class="cls-1" d="M32.4,23.22l0,0a1.51,1.51,0,0,1-.17.21A3,3,0,0,0,32.4,23.22Z"/><path class="cls-1" d="M34.64,19.3l0,.08-.05.14Z"/><path class="cls-1" d="M35.1,16.61a7.55,7.55,0,0,1-.19-.81c0-.51.14.51.1.2.07-.15-.24-1.17-.24-1.86l0,.16a13.4,13.4,0,0,0-.39-2.08s0,0,0,0a12.12,12.12,0,0,0-1-2.31c.16.2.2.32.17.16-.18-.32,0,.12-.39-.5a7.59,7.59,0,0,1-.37-.75c.13.19.26.38.38.58a6.35,6.35,0,0,0-.7-1l.05,0c-.63-.85-.69-.8-1.34-1.74l.05.11c-.43-.45-.27-.46-.76-.86l-.1-.18a20.72,20.72,0,0,0-1.92-1,13.79,13.79,0,0,1,1.63.79,10.49,10.49,0,0,0-1.4-.76,4.3,4.3,0,0,1,.47.24c-.46-.19-1.06-.47-1.78-.82.1,0-.37-.27-.93-.54l-.84-.41L25,2.89a7.7,7.7,0,0,0-2.21-.12c-.37,0-.75.07-1.14.13a3.3,3.3,0,0,0-1.21.37c.31-.09.19,0,0,.06s-.37.24-.3.26c-.31.24-.4.36-.44.38l.06-.05L19.75,4h0a4.34,4.34,0,0,0-.5.56c0,.05-.13.13-.1.16l.19.05.42.11c.16.05.09,0-.13,0a4.09,4.09,0,0,0-.44-.07l.66.16L20,5a1.08,1.08,0,0,0,.33.12c-.1-.06.3,0,.77.12L20.44,5c1.17.18,1,.31,2.16.48l-.37,0c.61.08,2.17.48,2.74.64.09.05.21.13,0,0A13.52,13.52,0,0,1,28.6,8.39l-.1,0a4.3,4.3,0,0,1,.63.51s-.1-.05,0,0a7.86,7.86,0,0,1,.8.72l-.24-.19a2.69,2.69,0,0,1,.92,1.34c.16.55.49.94.7,1.47,0,0,0,.16,0,.37a1.43,1.43,0,0,1,0,.34,1,1,0,0,1,0,.18.5.5,0,0,1,0,.09l0,.13a.4.4,0,0,0,.12.41c.1.11.16.14.2.18h0a2.28,2.28,0,0,1,.69,1.79A10.33,10.33,0,0,1,32,17.77a18.68,18.68,0,0,1-.77,2,11,11,0,0,1-1.34,2.16c.15-.18,0,.07-.13.29s-.59.79-.61.69l.08-.09c-.23.15-.72.69-1.15,1.06V24a20.79,20.79,0,0,1-4,2.56c-.31.18-.72.36-1,.51V27a17.53,17.53,0,0,1-2.61.75l.24-.09c-.68.14-.83.32-1.47.41L19,28a20.13,20.13,0,0,1-3.63.09s.06,0,.25,0a12.12,12.12,0,0,1-1.26-.2c-.44-.09-.78-.18-.7-.1a15.79,15.79,0,0,0-1.85-.52l.11,0a6.17,6.17,0,0,1-1.3-.35c-.17-.08-.13-.1.09,0a11.3,11.3,0,0,1-1.12-.48l.26.09A8.29,8.29,0,0,0,9,26.17a4.16,4.16,0,0,1-1-.77A3.71,3.71,0,0,1,7.31,25s.09,0,.15.06A21.09,21.09,0,0,1,5.6,23.67s0-.06-.07-.1c.63.54,1.19.92,1.14.89s-.51-.44,0-.18A8.08,8.08,0,0,1,5,23l0-.07,0,0c-.1-.11-.19-.21-.28-.3l-.32-.43c0-.08-.4-.63-.54-.94,0,0-.22-.35-.08,0a2,2,0,0,1,.14.25l.07.12,0,0a5.84,5.84,0,0,0,.45.69,2.61,2.61,0,0,1-.51-.75,4.31,4.31,0,0,1-.29-.38,13.89,13.89,0,0,1-.45-1.41,18.22,18.22,0,0,1-.83-2.94,1.07,1.07,0,0,1,0-.45,3.07,3.07,0,0,0,.06.45c-.1-.58-.09-1.72-.13-1.86.09-.73,0,.42.1-.59v.14A23.71,23.71,0,0,1,2.91,12,8.62,8.62,0,0,1,4.09,9.48a1.44,1.44,0,0,1-.15.21,15.7,15.7,0,0,1,5.2-5.55c.59-.38.66-.42,1-.68l.16,0c.2-.14.42-.26.63-.39a21.45,21.45,0,0,1,3-1h-.18a8.46,8.46,0,0,1,1.39-.32.85.85,0,0,1,.33-.09l0,0c.38-.08.76-.18,1.15-.24.91-.08-.13.12,1.19,0,.25,0,.58-.07.87-.12s.42-.18.34-.16a2.42,2.42,0,0,1-.33.08.39.39,0,0,1-.2,0,1.34,1.34,0,0,0,.44-.11V1L19,1l0-.18a5.62,5.62,0,0,0-.8-.23C16.79.42,15.35.17,13.91.08l.08,0H13.8l-.27,0h-.4s.06,0,.23,0c-.5,0-.45,0-.88,0,0,0,0,0,0,0L12,.08c.06,0,0,0,.05,0a7.9,7.9,0,0,0-1.55.4l.07,0c-.91.4-.4.21-.62.35L9.48,1,9,1.06,9,1.16c-.11.05-.34.17-.31.12-.4.26.08,0-.14.15-.57.23-1.42.88-1.58.9s.5-.31,0,.09c-.21,0-.6.46-1,.79.09-.15.52-.47.06-.14-.2.28-.81.72-1.13,1.07,0,.06-.69.76-1.15,1.4A17.2,17.2,0,0,0,2.33,7.31v0a14.47,14.47,0,0,1-.68,1.28s0-.13.14-.4l-.25.45a5.75,5.75,0,0,1-.25.57V9a16.93,16.93,0,0,0-.8,2.14s.17-.29.18-.17-.09.29-.12.44c0,0,0-.06,0-.2a4.05,4.05,0,0,1-.1.44l.05-.37a3.17,3.17,0,0,0-.1.53s-.08.23-.1.18.07-.27.09-.4c-.09.35-.19.78-.24.92,0,0,0,0,0,.27-.09.69-.07.23-.14.63,0,.17,0,.61,0,.62A1,1,0,0,1,0,14.4c0,.36,0,1.67.07,1.27v0a16.43,16.43,0,0,0,.56,3.54h0a10.61,10.61,0,0,0,.78,1.88c.08.19.19.44.13.38.26.46.31.5.7,1.16-.32-.43.07.17-.31-.45a5.8,5.8,0,0,0,.92,1.29c-.2-.17.28.45.52.67l-.3-.38c.26.27.46.52.7.74l-.17-.08a19.25,19.25,0,0,0,2.86,2.24c.34.16-.63-.44-.32-.3.54.36,1.07.78,1.25.88.76.47.77.33,1.58.77-.1-.07-.17-.17.46.11s.69.42.31.26c-.14-.06-.21-.1-.2-.1-.19-.08-.44-.19-.22-.06l.09,0a8.71,8.71,0,0,1,.9.46c.46.17.21,0-.12-.1a18.29,18.29,0,0,0,2,.78c-.13-.05-.24-.12-.11-.08a7.11,7.11,0,0,0,1.36.34c.46.15-.19,0,.65.21.51.12.1.08-.11.05.78.12,1.44.3,1.89.35l-.42,0,.66.06-.23-.07a2.5,2.5,0,0,1,.44.06c.25,0-.19-.08.31-.09.32,0,1,0,1.09.06-1,0,.11.07-.75.06h.61s0,0-.1,0a9.82,9.82,0,0,0,1.45-.08c-.13,0,.23.06.4,0-.4,0-.19,0,.17-.09a3.67,3.67,0,0,0,1-.17l-.38.07c.12-.06.44-.12.87-.25,0,0-.39.12-.23.09.47-.19,1.09-.25,1.75-.43.32-.05,0,.05.32,0A7.07,7.07,0,0,0,24.49,29c-.25.07-.26.09.23-.2a6.2,6.2,0,0,1-1.25.55,6.12,6.12,0,0,0,.8-.37,6.22,6.22,0,0,1-1,.39c.39-.15.35-.13.15-.11A7,7,0,0,0,25,28.54l0,.11a19.77,19.77,0,0,0,2.65-1.35l-.36.2c.13-.12.67-.41,1-.7,0,.05.2-.1.34-.19,0,0,.71-.55.77-.67l.48-.29a11.19,11.19,0,0,0,1.57-1.45c-.18.23.16-.06-.3.42a2.63,2.63,0,0,0,.44-.45c.15-.12.58-.69.79-.91a2.89,2.89,0,0,1,.3-.46s0,0,0,0,.31-.48.1-.24a14.64,14.64,0,0,0,1.83-3.17,7,7,0,0,0,.54-2.16s0,0,0,0A1.67,1.67,0,0,0,35.1,16.61Zm-31,5.24,0,0,.07.06a1.28,1.28,0,0,1,.17.28ZM12.38.08l-.25,0,.16,0ZM3.1,6.4,3,6.49l.06-.08Zm-1.27,2,0,0,0,0Z"/><path class="cls-1" d="M12.06,0l.16,0Z"/><path class="cls-1" d="M35.15,17.35a.7.7,0,0,0,0-.08S35.15,17.32,35.15,17.35Z"/><path class="cls-1" d="M3.89,21.59l0-.08.05.12.05.06Z"/><path class="cls-1" d="M.07,15.7v0Z"/><path class="cls-1" d="M7.55,1.89q.38-.23.77-.44c-.14.06-.34.13,0-.07C7.34,1.9,8.55,1.3,7.55,1.89Z"/><path class="cls-1" d="M5.36,3.52c-.2.22-.25.28,0,0S5.35,3.55,5.36,3.52Z"/><path class="cls-1" d="M1.61,21.63l-.06,0C1.72,21.93,1.56,21.6,1.61,21.63Z"/><polygon class="cls-1" points="5.47 26.04 5.99 26.37 5.61 26.12 5.47 26.04"/><path class="cls-1" d="M34.35,20.12l-.1.08C34.15,20.42,34.19,20.5,34.35,20.12Z"/><path class="cls-1" d="M30.86,6c.22.25.4.53.5.66A2.41,2.41,0,0,0,30.86,6Z"/><polygon class="cls-1" points="27.68 24.2 27.27 24.55 27.47 24.39 27.68 24.2"/><path class="cls-1" d="M15.4,12.31l0,.09S15.39,12.35,15.4,12.31Z"/><path class="cls-1" d="M15.61,10.83v0l0,0Z"/><polygon class="cls-1" points="17 6.69 17 6.71 17.03 6.71 17 6.69"/><path class="cls-1" d="M14.53,17.27h0S14.53,17.26,14.53,17.27Z"/><path class="cls-1" d="M17.56,24.64c-.09.09,0-.2-.1-.05C17.49,24.57,17.47,24.77,17.56,24.64Z"/><path class="cls-1" d="M14.92,20.74h0a.07.07,0,0,1,0-.05A.13.13,0,0,0,14.92,20.74Z"/><polygon class="cls-1" points="15.14 21.64 15.15 21.62 15.14 21.59 15.14 21.64"/><path class="cls-1" d="M17.63,24.44c.05-.19.07-.07.12-.2,0,0,0-.08,0-.2a1.27,1.27,0,0,1-.06.16c0-.29.1-.22,0-.48l0,.08c0-.12,0-.46-.11-.58s0-.05.05,0a6.75,6.75,0,0,1-.07-.89l0,0c0-.06-.06-.1,0-.17s0,0,0,0a.52.52,0,0,1,0-.22l0,.06a2.65,2.65,0,0,0-.12-.69c.08,0,.1-.23.11-.34h0a6,6,0,0,0-.13-.89,6.32,6.32,0,0,0,.06-1s-.06,0-.07-.06-.06-.2,0-.19v0c.07-.06,0-.21,0-.33l-.1,0c.13-.31-.07-.8.05-1,0-.07,0-.17-.05-.24h.05a4.49,4.49,0,0,0,0-.56l0,.05c0-.14-.15-.18-.15-.31l.08,0a3,3,0,0,0,0-.74.05.05,0,0,1,0,.05c0-.12.08-.44,0-.41.07,0,0-.25,0-.39l0,0a.49.49,0,0,1-.08-.29s0,0,0,0c0-.12,0-.1,0-.25l0,.06a.24.24,0,0,0,0-.19c0-.08,0-.24.08-.26a.18.18,0,0,1,0-.17s0,0,0,0c.05-.21,0-.33,0-.47a0,0,0,0,0,0,0,2.79,2.79,0,0,1,0,.3s.07-.14.12,0a1.1,1.1,0,0,1-.07-.45l0,0h0a.19.19,0,0,0,0-.09.62.62,0,0,0,0-.11s0-.16,0-.23,0-.09-.09,0,0,0,0,.06a.14.14,0,0,0,0,0h0v.17a.22.22,0,0,1,0-.19l-.08-.1c.08-.09.12-.27.17-.3a1.62,1.62,0,0,0-.1-.64c0-.06,0-.07,0-.09s0,.08,0,.1,0-.36-.07-.39.06.09.05-.12l0,0c.11-.41-.18-.67-.05-1.13,0,0,0,0,0,.05,0-.52-.11-1.07,0-1.59,0-.15,0-.16-.08-.24l.05,0-.08-.15c-.07-.21.11-.39,0-.66l0,0c0-.1-.1-.3-.06-.3s0,0,0-.06h0l-.12-.21c0-.18.12,0,0-.27,0-.09-.16-.25-.17-.21a.23.23,0,0,1,0,.06,0,0,0,0,0,0,0h0l0-.08h0c-.08,0-.17,0-.16.2l0,.07V7s0,0,0,0c-.09.2-.14.34-.19.47l-.08.24v0l0,.12s0,0,0-.05,0,.09-.07.16,0,0,0,0v.1s-.06,0,0-.06c-.1.16,0,.3-.11.34v0c0,.18,0,.12,0,.15l0,.11-.12.06,0,0s0,.07,0,.06,0,0,0,.05-.07.34-.16.34.06-.11.06,0,0,.15-.09.25,0-.14-.06,0-.07.21-.08.31,0,0,0,.06a.08.08,0,0,1,0-.06h0s0,0,.06.06,0,.2-.06.31a3.11,3.11,0,0,0-.16.43h0c.06,0,0,.19,0,.3s-.05,0-.06-.1l0,.1a.21.21,0,0,1,0,.13l0,0a1.91,1.91,0,0,1-.06.46s.09,0,.13,0l0,.09a0,0,0,0,1,0,0,.17.17,0,0,1,0,.09l0-.08c0,.08,0,0,0,.11s0,0-.06,0,0-.05,0-.08a.42.42,0,0,1-.09.18s0,0,0,.06-.05,0-.08.12,0,.12,0,.13,0,0-.05.06,0,.34,0,.26v0h0a6.07,6.07,0,0,1-.12.72h0a2.43,2.43,0,0,0,0,.42s0,.09-.07.07a.56.56,0,0,1,0,.27c0-.11,0,0,0-.11a.53.53,0,0,0,0,.32c0-.06-.07.1-.07.16l0-.09a1.28,1.28,0,0,1,0,.2l-.06,0c-.12.27,0,.53-.11.72,0,.08.05-.15.09-.07a1.67,1.67,0,0,1-.15.29c-.06.17.06.18,0,.36,0,0,.09,0,.09.11s-.12.15-.12.06,0,0,0,0,0-.1,0-.05l0,0c0,.06-.06.24-.09.19,0,.1,0,0,.05,0a3.71,3.71,0,0,0-.08.44s0,0,0,0c-.06.25,0,.12,0,.29s-.08,0-.06.13-.06,0-.07,0a1,1,0,0,1-.07.39v-.09a.61.61,0,0,1,0,.14l0,0s0,.09,0,.09.08,0,.11.07,0,.2,0,.22c0-.21-.06,0-.06-.16a.38.38,0,0,1,0,.13s0,0,0,0c-.06.2.06.09.06.3,0,0-.06,0-.06.08s.06,0,.08,0,0,.14,0,.21v-.08s0,.09,0,.18,0-.08,0-.05-.06.23,0,.37-.06,0-.08.07,0,.18,0,.34c0-.05,0-.06.08.06l0-.27.08.17c0-.08,0-.17,0-.22s0,.07.06,0c-.06.12.05.22,0,.36h-.11c0,.2.09.35.09.61v-.08s0,.16.05.24,0,.05-.06.09,0,.19.1.2l0,.12c0,.21.14.22.17.41-.05-.05-.06,0-.11-.08,0,.07,0,.13,0,.12s.08.17.06.24.06,0,.07.1h0s0,.11.08,0c-.07.23.14.55.09.75l.15.43s0,0,0,0c0,.18.13.08.16.28s-.06-.09-.07,0,.09.23.06.38l0,0c0,.11.11.23.14.4h0a1.52,1.52,0,0,1,.2.47c-.06,0,0-.07-.08,0s.07,0,.11.11,0,.16-.07.19l0-.14c-.05.08,0,.18,0,.25h0c.05.21.12.2.17.43l0,0c.1.11,0,.11.06.22l-.06.05c0,.07.13.28.21.41a1,1,0,0,1-.23-.33c0,.08.08.3.14.32a.22.22,0,0,1-.05-.1,1.25,1.25,0,0,1,.25.35c-.08,0,0,.21.11.42a.84.84,0,0,1,.38-.12c.15-.1.27-.14.43-.24a1.07,1.07,0,0,0,.37-.43c-.16.07,0-.1-.07-.13s0-.1,0-.11h0a1.66,1.66,0,0,0,.14-.23C17.65,24.3,17.6,24.44,17.63,24.44ZM17.71,13s0,.06,0,.07V13h0ZM16.46,8h0l0,.07S16.45,8.05,16.46,8Z"/><polygon class="cls-1" points="17.64 12.94 17.64 12.92 17.63 12.95 17.64 12.97 17.64 12.94"/><path class="cls-1" d="M15.41,12.27h0Z"/><path class="cls-1" d="M16.14,8.83s-.07.06,0,0c-.12.2.06,0,0,.19Z"/><path class="cls-1" d="M15.87,9.52c0,.06,0,.08,0,0S15.88,9.53,15.87,9.52Z"/><path class="cls-1" d="M15.14,13.49c0,.07,0,0,0,0Z"/><polygon class="cls-1" points="14.9 14.79 14.9 14.7 14.9 14.66 14.9 14.79"/><path class="cls-1" d="M15.1,21.44s-.09,0-.05,0Z"/><path class="cls-1" d="M15.83,24.45a1.21,1.21,0,0,0,0-.17A.16.16,0,0,0,15.83,24.45Z"/><polygon class="cls-1" points="17.53 18.47 17.51 18.36 17.51 18.42 17.53 18.47"/><path class="cls-1" d="M9,15.53l0,0S9,15.55,9,15.53Z"/><path class="cls-1" d="M8.35,15h0Z"/><polygon class="cls-1" points="6.98 13.26 6.99 13.27 7 13.24 6.98 13.26"/><path class="cls-1" d="M12.85,14.69c0,.08-.1-.06-.1,0S12.86,14.77,12.85,14.69Z"/><path class="cls-1" d="M12.87,18h0Z"/><polygon class="cls-1" points="13.36 17.64 13.34 17.64 13.33 17.66 13.36 17.64"/><path class="cls-1" d="M13.58,17c0-.1-.07-.14-.08-.25h0a.68.68,0,0,1-.15-.26c.05,0,0,0,.08,0s-.07,0-.1,0,0-.09.08-.11l0,.08c.06-.05,0-.1,0-.14h0c0-.12-.11-.1-.14-.22l0,0c-.09,0,0-.07,0-.12l.06,0a1.71,1.71,0,0,1-.16-.21c.07,0,.13.11.18.16a.4.4,0,0,0-.08-.13,0,0,0,0,1,0,0,.29.29,0,0,1-.15-.18c.14,0-.06-.23,0-.34-.12-.13-.11-.31-.22-.47-.06.11,0,0-.12,0s0,0,0-.06h0v-.15s0,0,.06,0,0-.06,0-.13-.07,0-.09-.05v.09c-.12-.08,0-.15-.11-.24l.05,0c-.06,0-.15-.22-.27-.22s0-.05,0,0c-.1-.14-.31-.23-.36-.36h0s-.08,0-.08-.05,0,0,0,0-.09,0-.11-.07h0c-.09-.15-.24-.12-.35-.2.06-.06,0-.17-.07-.22h0a1.5,1.5,0,0,0-.46-.23c0-.14-.28-.25-.41-.38,0,0,0,.05-.07,0s-.13,0-.08-.07h0c0-.08-.07-.11-.13-.14l-.06.08c-.09-.22-.43-.15-.46-.3H9.79l0,0a1.23,1.23,0,0,0-.28-.13l0,0c-.07,0-.15.1-.22.07v-.08c-.12-.06-.2-.18-.35-.18,0,0,0,0,0,0s-.16-.17-.21-.07c0-.06-.1-.08-.17-.1l0,0c-.08,0-.1,0-.17,0s0,0,0,0-.07,0-.1-.08h0c0-.05,0,0-.1,0a.11.11,0,0,1,0-.15s-.08,0-.09,0a0,0,0,0,1,0,0A.42.42,0,0,0,8.26,11a.23.23,0,0,1-.06-.15.11.11,0,0,0,0-.05A2,2,0,0,1,8.3,11s0-.17.09-.11c-.08-.11-.19-.15-.22-.28v0h0s0,0-.05,0l-.08,0s-.13.05-.18.08-.05.09,0,.09l0,0,0,0h0L8,10.68c0,.06-.08.11-.13.1l0,.13c-.06-.05-.22,0-.26,0s-.22.23-.19.35,0,0-.07,0,0,0,0-.06-.12.18-.06.24,0-.08-.08,0v0c-.21.21,0,.42-.11.67,0,0,0,0,0,0-.06.31.13.59.11.89,0,.08,0,.08.09.12l0,0,.08.06a.14.14,0,0,1,0,.13H7.25c-.09-.06.06-.1-.08-.16s-.18,0-.17,0,0,0,0,.07H7l-.11.14.26.33h0l.05.05a0,0,0,0,1,0,0c0,.07.05,0,.05.09h0l.05,0s0,0,0,0,.16.08.14.15h0c.09.05.07,0,.11,0l0,0,0,.1,0,0s0,0,0,0,0,0,.06,0,.16.1.11.18,0-.07,0,0,.07,0,.09.12-.07,0-.06,0,.08.09.13.11a0,0,0,0,1,0,0h0l0,0s0,0,.07,0,.08.07.14.1.1.14.15.21h0c.06,0,.11,0,.17.05a.08.08,0,0,1-.08,0l0,0a.09.09,0,0,1,.08,0l0,0c.06,0,.16.05.21.14s0-.08.06-.11l0,0h0s0,0,0,0H8.63s0,0,.07,0,0,0,0,.06,0,0,0,0a.16.16,0,0,1,0,.11s0,0,.06,0,0,.05,0,.09.05,0,.09,0,0,0,0,.05.15.12.15,0H9c.13,0,.19.2.3.27h0c.07,0,.14.1.21.11s0,.06,0,.07.07,0,.12.09,0,0-.06,0,0,.1.14.11,0,.08,0,.1l0-.06.09.07-.06,0c.07.16.3.09.31.26.06,0,0-.08,0-.09s0,.17.07.18.13,0,.19.08,0-.08.11,0,0,.13,0,.11,0,0,0,0-.05,0,0,0h0s.09.1,0,.12,0,0,0,0,.11.09.17.17,0,0,0,0,.07,0,.15.06-.07,0,0,.09,0,.05-.06.05.1.12.12.16h0l.05,0v0s0,0,0,.05,0-.07.1-.06.09.06.06.11,0,0-.11,0a.1.1,0,0,1,0,0h0c0,.11.08,0,.16.07a0,0,0,0,0,0,.07s0-.05.07,0,.07,0,.1.07l0,0s.06,0,.1,0,0,0,0,0,.06.14.16.16,0,.05,0,.09.09.1.21.11,0,0,.06-.06l-.18,0h.13s-.12,0-.14,0,.05,0,0,0,.14,0,.19.08l0,.11c.1.08.22,0,.36,0l0,0s.09,0,.14,0,0,.05,0,.08.11,0,.13-.06l.07,0c.12,0,.13-.11.25-.11s0,.06,0,.1.08,0,.07,0,.1-.06.14,0,0-.06.05-.07a0,0,0,0,1,0,0s.06,0,0-.07l.08,0c.18,0,.22-.21.34-.24a2.58,2.58,0,0,0,.1-.25s0,0,0,0-.07-.1,0-.2,0,.07,0,0,0-.15.08-.25ZM8,10.69H8l0,0s0,0,.05,0Zm-.58,2.66h0Zm-.15.55h0l0,0Z"/><path class="cls-1" d="M13.25,15.75l0,0Z"/><polygon class="cls-1" points="7.91 10.77 7.9 10.79 7.92 10.79 7.93 10.76 7.91 10.77"/><polygon class="cls-1" points="9 15.51 9 15.5 9 15.51 9 15.51"/><path class="cls-1" d="M7.6,14.34l-.07-.08s0,.06,0,0C7.55,14.42,7.51,14.25,7.6,14.34Z"/><path class="cls-1" d="M7.79,14.59s0,0,0,0S7.8,14.58,7.79,14.59Z"/><path class="cls-1" d="M9.46,16s0,0,0,0Z"/><polygon class="cls-1" points="9.93 16.49 9.99 16.52 9.94 16.5 9.93 16.49"/><path class="cls-1" d="M13.33,17.76l-.06,0S13.31,17.81,13.33,17.76Z"/><path class="cls-1" d="M13.33,16s0,.08,0,.09A.06.06,0,0,0,13.33,16Z"/><polygon class="cls-1" points="10.33 12.29 10.36 12.3 10.39 12.3 10.33 12.29"/><path class="cls-1" d="M6.88,17.71l0,.05S6.9,17.73,6.88,17.71Z"/><path class="cls-1" d="M6.19,17.13h0Z"/><polygon class="cls-1" points="4.93 15.04 4.95 15.04 4.95 15.01 4.93 15.04"/><path class="cls-1" d="M13.3,21.22c0,.09-.12-.06-.09.06S13.33,21.32,13.3,21.22Z"/><path class="cls-1" d="M10.8,20.93h0s0,0,0,0S10.78,20.93,10.8,20.93Z"/><polygon class="cls-1" points="11.2 21.3 11.2 21.29 11.19 21.28 11.2 21.3"/><path class="cls-1" d="M13.46,22a.94.94,0,0,0-.08-.72c0,.13,0-.06-.13,0s0-.05,0-.06h0a1.37,1.37,0,0,1,0-.15s0,0,.06,0,0-.06,0-.12-.07,0-.08,0v.09c-.12-.07,0-.14-.09-.22l.05,0c-.05,0-.1-.21-.2-.24s0,0,.05,0c0-.14-.19-.37-.18-.52h0s-.07,0-.06-.09,0,0,0,0-.08-.07-.08-.12l0,0c0-.19-.18-.23-.27-.36.07,0,0-.18,0-.25h0a1.4,1.4,0,0,0-.43-.39c0-.16-.28-.32-.41-.48,0,0,0,0-.07,0s-.14,0-.09-.08h0c0-.08-.08-.12-.14-.15l-.06.08c-.08-.22-.44-.21-.46-.37l-.15,0,0,0a1.42,1.42,0,0,0-.29-.18l0,0c-.07,0-.17.07-.24,0l0-.08c-.13-.08-.22-.21-.39-.23a0,0,0,0,1,0,0c-.06,0-.21-.19-.24-.08,0-.06-.13-.09-.22-.1l0,0c-.09,0-.1,0-.2,0s0,0,0,0-.08,0-.14-.06h0c-.06,0-.07,0-.13,0S9,17,9,16.9a.09.09,0,0,1-.11,0s0,0,0,0-.2,0-.25-.14a0,0,0,0,0,0,0l.15.1s0-.09,0-.11c-.08,0-.21,0-.27-.06a.06.06,0,0,1,0,0h0l0,0-.05,0s-.07-.07-.11-.09-.07,0,0,.08h0l.09.05s-.08,0-.11,0l-.09,0c0-.09-.09-.18-.08-.23s-.27-.14-.39-.09,0,0,0-.07h.06c-.07,0-.19-.1-.24-.05s.08,0,0-.08h0c-.16-.22-.43-.05-.59-.32,0,0,0,0,0,0-.24-.21-.58-.28-.79-.52-.07-.06-.11,0-.17,0v-.06l-.11,0c-.14,0-.19-.2-.37-.15v0c-.06,0-.19,0-.17-.06s0,0,0,0v0l-.15,0c-.1,0,0-.11-.12-.15S4.94,15,5,15,5,15,5,15H4.94v0h0l-.17.28.21.25H5l.05.06H5c0,.07.06,0,.06.09h0l.06,0s0,0-.05,0,.16.09.14.16h0c.08.07.08,0,.11,0l0,.06,0,.09.05,0s0,0,0,.05,0,0,.06,0h0c0,.09.15.14.1.21s0-.08.05,0,.07.06.08.14-.07,0-.06,0,.07.11.12.14a0,0,0,0,1,0,0h0l0,0s0,0,.07,0,.08.09.13.13.09.16.14.24H6c.06,0,.12,0,.17.08a.08.08,0,0,1-.09,0l0,0a.1.1,0,0,1,.08,0l0,0c.06.06.16.08.22.18s0-.09.07-.11l0,0a0,0,0,0,1,0,0s0,0,0,0H6.48s0,0,.07,0,0,0,0,.06,0,0,0,0a.19.19,0,0,1,0,.12,0,0,0,0,1,.06,0c.06.06,0,.05,0,.1s.05.05.09,0,0,0,0,.06.16.13.16.05h0c.14.05.2.22.33.29h0c.08,0,.15.11.23.12s0,.06,0,.07.08,0,.13.1,0,0-.07,0,.05.1.16.12c-.05,0,0,.09.05.1l0-.06.1.08-.06,0c.09.17.32.09.35.27.06,0-.06-.08,0-.1s.07.18.09.19.14,0,.21.08,0-.08.11,0,0,.13,0,.12,0,0,0,0-.06,0,0,0h0s.11.11.06.12,0,0,0,0,.13.1.2.18,0,0,0,0,.08,0,.17.06-.07.05,0,.09,0,.06-.06.05.12.13.16.17l-.05,0,.07,0v-.05s0,0,0,.05,0-.07.1-.07.11.05.08.11,0,.06-.11,0l.06,0h0c.06.11.08,0,.18.06s0,.07,0,.07,0-.06.07-.05.08,0,.11.06l0,0s.06,0,.11,0,0,0,0,0,.07.13.16.15,0,.05,0,.08.05.1.15.13,0,0,.08,0l-.15-.08H9.9s-.1,0-.12-.07.05,0,.06,0,.13.05.16.14l-.07.08c.06.11.2.09.3.2l0,0s.08.05.13.07,0,.06,0,.09.08.07.14,0l0,.08c.08.09.18,0,.26.1s0,.06-.11,0,.05.06.07,0,.11,0,.12.09.05,0,.08,0h0s.07,0,.07,0c0,.16.25.23.26.37l.21.17s0,0,0,0,.12,0,.18.09-.07,0-.06,0,.11.1.12.2h0c0,.07.14.08.2.16h0a.65.65,0,0,1,.27.17c-.06,0,0,0-.07,0s.05-.06.12,0a.32.32,0,0,0,0,.06.16.16,0,0,1,0,.1l-.06-.05,0,0s0,0,0,0,.12.08.15.1l0,0c.17.07.18,0,.33,0v0c.09-.06.06,0,.15,0l0,.07.28-.12c0,.07-.16.11-.23.15s.2,0,.22-.07,0,0-.07,0a1.13,1.13,0,0,1,.23-.17C13.16,22.4,13.35,22.11,13.46,22Zm-5-5.52h0l0,0s0,0,0,0Zm-3.34-.78h0Z"/><ellipse class="cls-1" cx="8.38" cy="16.56" rx="0.01" ry="0.01" transform="translate(-9.63 21.06) rotate(-77.2)"/><polygon class="cls-1" points="6.87 17.69 6.87 17.68 6.87 17.69 6.87 17.69"/><path class="cls-1" d="M5.36,16.21c0,.14,0-.05.1.06l-.06-.09S5.39,16.24,5.36,16.21Z"/><path class="cls-1" d="M5.63,16.56s0,0,0,0S5.64,16.56,5.63,16.56Z"/><path class="cls-1" d="M7.42,18.21l0,0S7.4,18.23,7.42,18.21Z"/><polygon class="cls-1" points="7.99 18.77 7.94 18.74 7.92 18.74 7.99 18.77"/><path class="cls-1" d="M11.13,21.21s-.08,0,0,.05Z"/><path class="cls-1" d="M12.59,22.45s-.09,0-.11,0A.08.08,0,0,0,12.59,22.45Z"/><polygon class="cls-1" points="11.23 18.16 11.25 18.18 11.29 18.18 11.23 18.16"/><path class="cls-1" d="M25.74,18.78s0,0,.06,0Z"/><path class="cls-1" d="M26.67,18.69h0v0Z"/><polygon class="cls-1" points="29.02 19.22 29.02 19.23 29.02 19.26 29.02 19.22"/><path class="cls-1" d="M19,22.48c0-.08.13,0,.07-.09S18.91,22.4,19,22.48Z"/><path class="cls-1" d="M21,20.07h0s0,0,0,0Z"/><polygon class="cls-1" points="20.5 20.29 20.51 20.3 20.53 20.29 20.5 20.29"/><path class="cls-1" d="M27.32,18.75a.05.05,0,0,1,0,0,.11.11,0,0,0,0,0s0,0,0,.07-.12,0-.18,0-.18,0-.27-.06h0c0,.07-.11.06-.17.07a.07.07,0,0,1,0-.08h-.06a.1.1,0,0,1-.07,0v-.05c-.08,0-.16.07-.27,0s0,.08,0,.12h-.05s0,0,0,0,0,0-.05,0l0,0s0,0-.06,0,0,0,0-.05,0,0,0,0a.18.18,0,0,1-.12,0s0,0,0,.06,0,0-.08-.06-.07,0-.07.06,0,0,0,0-.2,0-.14.08h0c-.13.07-.29,0-.43,0v0c-.08,0-.18,0-.23.09s-.06,0-.06,0-.06,0-.16,0c.06,0,0,0,.06,0-.08,0-.11,0-.19,0s-.07,0-.11,0l.06,0-.12,0v-.07c-.18,0-.27.18-.43.09s.1,0,.07.07-.18-.06-.2-.05-.08.11-.19.11,0,.07,0,.11-.12-.07-.07-.1,0,0,0,0,.05,0,0,0v0s-.15,0-.13,0,0,0,0,0-.15,0-.26,0,0,0,0,0-.05.06-.15.09,0-.08-.09,0,0-.05,0-.08-.18,0-.23,0l0,0-.07,0,0,0s-.05,0-.06,0,0,.06,0,.12-.1.06-.14,0c.12,0,0-.05.06-.09l-.07,0s0,0,0,0,0,.08-.15.11,0-.05-.06,0,0,0,0,.08-.07,0-.11.06h0s0,0-.09.07,0,0,0,0-.15,0-.21.05,0-.06-.06-.06-.11,0-.19.06,0,0,0,.09l.14-.09-.07.1s.09-.06.12-.07,0,0,0,.07-.11.08-.2.07l0-.1c-.13,0-.17.13-.32.15h.05s-.08,0-.12.07,0,0-.07-.05-.1,0-.09.11l-.08,0c-.12,0-.09.15-.2.18s0-.05,0-.11-.07,0-.06,0-.08.09-.13.07,0,.06,0,.07a0,0,0,0,1,0,0s-.05,0,0,.07c-.16-.06-.3.14-.44.09l-.23.13s0,0,0,0,0,.12-.14.14,0-.06,0-.06-.12.08-.23,0h0c-.07,0-.12.11-.21.14a0,0,0,0,0,0,0,.67.67,0,0,1-.23.22c0-.06,0,0,0-.08s0,.06,0,.11-.1,0-.13,0l.07,0c-.07,0-.09,0-.14.06v0c-.11.07-.07.12-.21.2h0c0,.1-.08,0-.11.1l-.07,0-.12.26a.55.55,0,0,1,.07-.25s-.12.14-.11.18,0-.05,0-.06a.44.44,0,0,1-.08.25c-.1-.11-.21.22-.2.37v0a2.61,2.61,0,0,0,.4.52c0-.14.05,0,.11-.06l.06,0h0a.84.84,0,0,0,.11.14s-.06,0-.07,0,0,.07.11.13.06,0,.16,0l-.11-.07c.21,0,.16.12.32.07l0,0c.08,0,.29,0,.36-.1s0,0,0,.05c.19,0,.39-.14.54-.11v0s0-.06.1,0,0,0,0,0,.08-.07.13-.06l0,0c.18,0,.25-.14.38-.2s.17.06.23,0h0a2.13,2.13,0,0,0,.46-.28c.14,0,.37-.1.56-.12,0,0,0-.06,0-.08s.09-.1.11,0h0c.06.06.13,0,.2,0l0-.1c.22.07.43-.21.56-.13s.08-.06.12-.1l0,.05a1.35,1.35,0,0,0,.31-.11l0,0c.08,0,0-.18.12-.21l0,.07c.14-.05.3,0,.41-.16a0,0,0,0,1,0,0c.07,0,.27,0,.21-.14,0,.07.14,0,.21-.1v.05c0-.09,0-.1.12-.15s0,0,0,0,0-.07.13-.07l0,0c.07,0,.06,0,.09-.09a.13.13,0,0,1,.17,0,.09.09,0,0,1,.07-.08s0,0,0,0,.16-.12.26-.1l0,0-.17.05s.1,0,.06.11.13-.17.21-.18h0l0,0h.07s.1,0,.13,0,0-.06,0-.08l0,0h0l-.09,0s0-.07.1-.06l0-.1c.08,0,.19,0,.22.09s.27-.12.31-.24,0,0,.07,0,0,0,0,0,.19-.08.18-.15,0,.08.09,0v0c.26,0,.3-.3.6-.26h0c.31,0,.57-.27.88-.28.09,0,.08-.06.12-.1l0,0,.06-.09c.1-.09.25.05.37-.09l0,0c.06,0,.16-.08.17,0s0,0,0,0v0l.11-.1c.11,0,0,.12.18.07s.13-.14.1-.15-.06,0-.08,0l0,0v0h0L29,19l-.41-.05h-.09s0,0,0,0-.06,0-.1,0,0,0,0,0l-.06,0s0-.06,0,0-.17,0-.21,0h0c-.11,0-.07,0-.08.07H28l0-.1,0,.06s0,0,0,0,0,0,0,.06-.2,0-.21-.09.07,0,0,.06-.09,0-.15,0,.08,0,0-.07-.13,0-.19,0S27.34,18.75,27.32,18.75ZM25.59,20.7h0a.08.08,0,0,1,0,0s0,0,0,0Zm2.78-1.79h0Z"/><ellipse class="cls-1" cx="25.61" cy="20.62" rx="0.01" ry="0.01" transform="translate(-7.27 20.07) rotate(-37.89)"/><polygon class="cls-1" points="25.82 18.8 25.82 18.81 25.82 18.8 25.82 18.8"/><path class="cls-1" d="M27.78,18.76l.1,0s0-.05,0-.05C27.76,18.66,27.91,18.78,27.78,18.76Z"/><path class="cls-1" d="M27.45,18.67s0,0,0,0S27.45,18.68,27.45,18.67Z"/><path class="cls-1" d="M25.08,18.86v0S25.08,18.83,25.08,18.86Z"/><polygon class="cls-1" points="24.36 18.89 24.3 18.92 24.35 18.9 24.36 18.89"/><path class="cls-1" d="M20.57,20.21l0,0S20.61,20.17,20.57,20.21Z"/><path class="cls-1" d="M18.93,21.06S19,21,19,21A.08.08,0,0,0,18.93,21.06Z"/><polygon class="cls-1" points="22.65 21.82 22.62 21.83 22.6 21.86 22.65 21.82"/><path class="cls-1" d="M23.69,14.69s0,0,.05,0Z"/><path class="cls-1" d="M24.52,14.48h0v0Z"/><polygon class="cls-1" points="26.86 14.48 26.85 14.49 26.86 14.51 26.86 14.48"/><path class="cls-1" d="M18.7,19.27c0-.08.12,0,.08-.08S18.66,19.2,18.7,19.27Z"/><path class="cls-1" d="M19.45,16.27h0s0,0,0,0Z"/><polygon class="cls-1" points="19.02 16.54 19.04 16.54 19.05 16.53 19.02 16.54"/><path class="cls-1" d="M25.31,14.44c0-.05.07,0,0-.07s-.12,0-.17,0a0,0,0,0,1,0,0,.05.05,0,0,1,0,0v0s0,.05,0,.08-.11,0-.16,0-.17,0-.25,0h0c0,.07-.09.07-.14.1a.08.08,0,0,1,0-.08h-.06a.09.09,0,0,1-.06.05v-.05c-.07,0-.14.09-.24.07s0,.08,0,.12h0a0,0,0,0,1,0,0s0,0,0,0l0-.05s0,0-.05,0,0,0,0-.05,0,0,0,0a.16.16,0,0,1-.11,0s0,0,0,.06,0,0-.08,0-.07,0-.05.07,0,0,0,0-.18,0-.12.1h0c-.11.08-.27,0-.39.09v0c-.07,0-.16.05-.2.11s-.06,0-.06,0-.05,0-.14,0,0,0,.05,0c-.08,0-.1,0-.17.05s-.07,0-.1,0l.06,0-.11,0v-.07c-.17,0-.23.2-.38.12s.09,0,.07.06-.17,0-.19,0-.06.11-.16.13a.07.07,0,0,1,0,.11c-.07,0-.11-.06-.08-.09h0s0,0,0,0v0s-.13,0-.12,0,0,0,0,0-.14,0-.23.06,0,0,0,0,0,.06-.13.1,0-.08-.09,0,0-.05,0-.08-.16,0-.21,0l0,0-.06,0,0,0s0,0-.06,0,0,.06,0,.12-.09.06-.12,0,0,0,0-.1l-.06,0s0,0,0,0,0,.08-.12.12a0,0,0,0,0-.06,0s0,0,0,.08-.06,0-.1.06h0s0,0-.08.08,0,0,0,0-.14,0-.19.06,0-.06-.06-.06-.1,0-.17.07,0,0,0,.08l.12-.09-.06.1s.07-.07.1-.07,0,0,0,.06-.09.09-.18.07l0-.1c-.12,0-.14.14-.28.17h0S20,16,20,16s0,0-.07,0-.09,0-.07.12h-.08c-.11,0-.06.15-.16.19s0,0,0-.11-.06,0-.05,0-.06.09-.11.08,0,.06,0,.08v0s0,.05,0,.07c-.15,0-.26.16-.39.13l-.19.17s0,0,0,0,0,.12-.09.17,0-.07,0-.06-.09.11-.2.12v0c-.07,0-.06.15-.12.23h0a1.23,1.23,0,0,1,0,.31s0,0-.06,0,.08,0,.06.1-.07.07-.12.07l0-.08c-.08,0,0,.11,0,.15h0c0,.13.06.14,0,.27h0c.07.07,0,.06,0,.13l-.07,0s.08.16.11.24-.1-.13-.14-.19a.38.38,0,0,0,0,.15,0,0,0,0,1,0,0,.33.33,0,0,1,.12.21c-.14,0,0,.22-.05.35a3.15,3.15,0,0,0,.34.47c0-.13,0,0,.11-.06s0,0,0,0h0l.06.14s0,0-.06,0,0,.06,0,.13.06,0,.1,0l0-.09c.14,0,0,.15.18.18H19a1.57,1.57,0,0,0,.23.11.28.28,0,0,0,.27-.08s.05,0,0,.05c.22,0,.35-.25.5-.32v0s0-.07,0-.08,0,0,0,0,0-.09.07-.1v0c.14-.08.12-.22.21-.32.05.06.16,0,.22,0h0a2,2,0,0,0,.29-.39c.14,0,.29-.2.46-.26,0,0,0-.05,0-.08s0-.11.09,0h0c.07,0,.12,0,.17-.06L21.52,18c.22,0,.31-.31.46-.26s.06-.07.07-.12l0,0a1.28,1.28,0,0,0,.25-.17v0c.06,0,0-.18,0-.22l.06.05c.11-.08.26-.1.33-.23s0,0,0,0,.23-.09.15-.17.12-.07.16-.14l0,0c0-.09,0-.11.07-.17s0,0,0,0,0-.07.1-.09v0c.06,0,0,0,.06-.1a.12.12,0,0,1,.15,0,.08.08,0,0,1,0-.09,0,0,0,0,1,0,0c.12,0,.11-.14.21-.14l0,0-.14.08s.09,0,.08.1c0-.06.08-.18.15-.2h0a.06.06,0,0,0,0,0l.06,0s.08,0,.12,0,0-.06,0-.07l0,0h0l-.08.05s0-.07.08-.07v-.1c.08,0,.19,0,.22.05s.22-.15.23-.27,0,0,.06,0,0,0,0,0,.16-.1.14-.17,0,.08.08,0v0c.24,0,.23-.33.51-.32h0c.27-.08.48-.32.77-.35.08,0,.07-.06.09-.11l0,0,0-.09c.08-.1.23,0,.32-.15l0,0s.13-.11.14-.07,0,0,0,0l0,0,.08-.12c.1,0,0,.11.18,0s.09-.16.06-.16a.06.06,0,0,1-.08,0l0,0h0c0-.07-.06-.15-.18-.14l0,.08h0l.05,0s0,0-.06,0a.72.72,0,0,0-.26,0h0v0l0,0h-.07s0,0,0,0,0,0-.1,0,0,0,0,0l-.05,0s0-.05,0,0-.15.08-.19,0h0c-.1,0-.05.05-.07.09h-.06l-.06-.09v.06s0,0,0,0,0,0,0,.06-.18,0-.21,0,.07,0,0,.06S25.37,14.48,25.31,14.44ZM24,16.35h0a.08.08,0,0,1,0,0s0,0,0,0Zm2.11-2s0,0,0,0h0Z"/><path class="cls-1" d="M18.22,18.2l0,0S18.23,18.21,18.22,18.2Z"/><ellipse class="cls-1" cx="23.98" cy="16.28" rx="0.01" ry="0.01" transform="translate(-4.22 22.96) rotate(-47.5)"/><polygon class="cls-1" points="23.76 14.7 23.77 14.7 23.77 14.7 23.76 14.7"/><path class="cls-1" d="M25.63,14.36s0,0,0-.05c-.13,0,0,0-.1.05Z"/><path class="cls-1" d="M25.22,14.33s0,0,0,0S25.22,14.34,25.22,14.33Z"/><path class="cls-1" d="M23.09,14.82v0S23.09,14.79,23.09,14.82Z"/><polygon class="cls-1" points="22.39 14.94 22.43 14.92 22.44 14.91 22.39 14.94"/><path class="cls-1" d="M19.08,16.44l0,0S19.11,16.41,19.08,16.44Z"/><path class="cls-1" d="M18.19,17.95s0-.08,0-.1A.06.06,0,0,0,18.19,17.95Z"/><polygon class="cls-1" points="21.61 18.05 21.65 18 21.62 18.02 21.61 18.05"/><path class="cls-1" d="M9.71,8.26h0Z"/><polygon class="cls-1" points="9.94 6.43 9.95 6.43 9.96 6.4 9.94 6.43"/><path class="cls-1" d="M14,12.39c-.07,0,0-.11-.07-.09S13.95,12.41,14,12.39Z"/><path class="cls-1" d="M11.32,12.14h0s0,0,0,0S11.3,12.13,11.32,12.14Z"/><polygon class="cls-1" points="11.65 12.39 11.65 12.37 11.64 12.37 11.65 12.39"/><path class="cls-1" d="M14.35,11.74c0-.17-.13-.33-.1-.45h0s-.07,0,0-.07,0,0,0,0-.07-.05-.07-.09l0,0c0-.14-.15-.16-.21-.24s.06-.13.05-.18h0c0-.13-.16-.19-.24-.3s-.07-.27-.08-.42c0,0-.06,0-.08,0s-.09-.06,0-.08h0c.06-.05,0-.11,0-.15l-.09,0c.07-.19-.21-.29-.14-.42s-.06-.05-.1-.06l0,0a.65.65,0,0,0-.15-.22h0c0-.06-.17,0-.21,0l0-.07c-.07-.09-.11-.22-.25-.24s0,0,0,0-.13-.18-.18-.08c0-.06-.1-.07-.16-.08l0,0c-.08,0-.09,0-.16,0s0,0,0,0-.06,0-.11,0l0,0s-.05,0-.1,0-.08-.06-.06-.1-.07,0-.08,0a0,0,0,0,1,0,0c0-.08-.14,0-.15-.11v0l.08.08s0-.08.07-.1-.16,0-.18,0v0h0l0,0a.1.1,0,0,0,0,0s0-.06,0-.08-.06,0-.07.06h0l0,0s-.07,0-.06,0l-.09,0c0-.08,0-.16.05-.19s-.12-.15-.23-.15,0,0,0-.05l0,0s-.07-.12-.14-.1.07,0,0-.06h0c0-.19-.26-.21-.24-.44,0,0,0,0,0,0-.08-.24-.34-.34-.48-.54s-.08,0-.13,0l0-.06-.09,0c-.1,0-.09-.2-.24-.16v0s-.13,0-.11-.07,0,0,0,0v0h-.11c-.07,0,0-.11-.06-.15s-.14,0-.13.07a.05.05,0,0,1,0,.06h0v0h0c0,.07-.07.14,0,.22h0c0,.08,0,.16,0,.24h0V7h0s0,0,0,.08h0l0,0s-.05,0,0,0,.06.12,0,.15h0c0,.08,0,0,.08.05s0,0,0,.05l-.09,0h.06s0,0,0,0,0,0,.06,0,0,.15-.07.15,0,0,.06,0,0,.07,0,.11,0-.06-.07,0,0,.09,0,.12a0,0,0,0,1,0,0l0,0h0s0,0,.07,0,0,.08,0,.13-.06.12-.1.18h0c.07,0,0,.09.05.14a.08.08,0,0,1-.07,0v0a.07.07,0,0,1,0,.06l0,0c0,.06,0,.13,0,.2s.09,0,.12,0,0,0,0,0l0,0s0,0,0,0l0,0s0,0,0,0,0,0-.06,0,0,0,0,0a.13.13,0,0,1-.06.08s0,0,.05,0,0,0-.07.06,0,.05.06.06,0,0,0,0,0,.15.07.11h0c.05.1,0,.22,0,.32h0c0,.06,0,.13.08.17s0,0,0,0,0,0,0,.12,0,0,0,0,0,.08,0,.14,0,.06,0,.08l0-.05a.25.25,0,0,1,0,.09H9.76c0,.15.19.18.1.31s0-.08.06-.06,0,.14,0,.16.11,0,.12.12a.07.07,0,0,1,.11,0c0,.05-.05.1-.09.08s0,0,0,0,0,0,0,0h0s0,.11,0,.11,0,0,0,0,0,.11.06.18,0,0,0,0,.06,0,.11.08-.08,0,0,.08,0,0-.07,0,0,.13.06.17l0,0,0,0,0,0s0,0,0,0,.05-.05.11,0,.07.06,0,.1,0,0-.09,0a.07.07,0,0,1,0,0h0c0,.1.08,0,.13.07s0,.05,0,.06,0,0,.08,0,.05,0,.07.07v0s0,0,.08,0,0,0,0,0,0,.12.08.14,0,0,0,.07,0,.09.08.12,0,0,.08,0l-.1-.07.1,0s-.07,0-.07-.06,0,0,.06,0,.09.05.09.12l-.09.07c0,.1.14.08.19.18v0s0,0,.09.06,0,0,0,.07.05.06.11,0v.07c0,.08.15,0,.2.07s0,.06-.1,0,0,0,.05,0,.09,0,.09.06,0,0,.07,0h0s.06,0,.06,0c0,.15.2.15.21.27l.19.08s0,0,0,0,.09-.07.16,0-.06,0,0,0,.11,0,.14.11h0c0,.06.13,0,.2,0a0,0,0,0,0,0,0,.54.54,0,0,1,.24-.06s0,0,0,.07,0-.08.07-.08.06.05.07.11h-.06c0,.07.08,0,.12,0v0c.1,0,.1-.08.2-.08v0c.05-.08,0,0,.1,0l0,.07.18-.11c0,.06-.1.1-.15.13a.25.25,0,0,0,.11,0h0a.22.22,0,0,1,.16-.11c0,.14.19,0,.28.08.11-.09.27-.08.41-.19-.12-.05,0,0,0-.12l0,0h0l.13,0s0,0,0,.06.06,0,.13,0,0-.06,0-.1l-.09,0c0-.14.15-.05.15-.21l0,.06c0-.07.08-.27,0-.34S14.35,11.71,14.35,11.74ZM11.93,8.1h0s0,0,0,0l0,0ZM10,7h0Z"/><path class="cls-1" d="M13.12,12.67l0,0Z"/><circle class="cls-1" cx="11.88" cy="8.11" r="0.01" transform="translate(-1.77 12.63) rotate(-52.64)"/><polygon class="cls-1" points="9.74 8.89 9.75 8.89 9.74 8.89 9.74 8.89"/><path class="cls-1" d="M9.88,7.48l0-.07s0,0-.05,0S9.89,7.39,9.88,7.48Z"/><path class="cls-1" d="M9.79,7.69s0,0,0,0S9.8,7.7,9.79,7.69Z"/><path class="cls-1" d="M9.76,9.44h0S9.73,9.44,9.76,9.44Z"/><polygon class="cls-1" points="9.81 9.99 9.8 9.98 9.83 10.02 9.81 9.99"/><path class="cls-1" d="M11.56,12.38l0-.05S11.52,12.37,11.56,12.38Z"/><path class="cls-1" d="M12.92,12.7s-.06,0-.07,0S12.9,12.73,12.92,12.7Z"/><polygon class="cls-1" points="13.59 9.7 13.6 9.72 13.63 9.74 13.59 9.7"/><path class="cls-1" d="M22.52,9.1s0,0,0,0Z"/><path class="cls-1" d="M23.21,8.66h0v0Z"/><polygon class="cls-1" points="25.37 8.18 25.36 8.19 25.39 8.21 25.37 8.18"/><path class="cls-1" d="M19,14.66c-.06,0,.09-.07,0-.11S18.92,14.64,19,14.66Z"/><path class="cls-1" d="M19.34,12h0s0,0,0,0S19.34,12,19.34,12Z"/><polygon class="cls-1" points="19.08 12.39 19.06 12.41 19.07 12.41 19.08 12.39"/><path class="cls-1" d="M18.14,14s0,0,0,0A.2.2,0,0,0,18.14,14Z"/><path class="cls-1" d="M19,12.59c-.08.06.05.11,0,.17s0-.06,0,0-.06.12-.16.14v0c-.06,0,0,.14-.09.21h0a.56.56,0,0,1-.06.27s0,0,0-.06.07,0,0,.1-.08,0-.13,0l0-.06c-.08,0,0,.08-.08.11l0,0c-.05.1,0,.14-.06.24h0c0,.09-.06,0-.05.11h-.08a1.22,1.22,0,0,0,0,.27.38.38,0,0,1-.05-.25.33.33,0,0,0,0,.17,0,0,0,0,1,0,0,.94.94,0,0,1,.08.25c-.07,0-.07.08,0,.16s.12.15.12.22a1.3,1.3,0,0,0,.58.15c-.07-.11.05,0,0-.12H19l.13.06s0,0,0,.05,0,0,.11.07,0-.06.08-.05l-.08,0c.12-.08.12.08.25,0l0,0c.06,0,.25,0,.3-.15s0,0,0,.05c.17,0,.32-.19.46-.18v0s0-.07.08-.06,0,0,0,0,.05-.08.1-.08l0,0c.17,0,.19-.18.28-.27,0,.07.17,0,.23,0h0a1.11,1.11,0,0,0,.29-.41c.14,0,.26-.27.38-.36,0,0,0,0,0-.07s0-.12.07-.07h0c.08,0,.11-.05.14-.1L21.63,13c.21,0,.21-.36.36-.34,0,0,0-.08,0-.13l0,0a1.09,1.09,0,0,0,.19-.22v0c0-.05-.06-.17,0-.22l.07,0c.08-.1.22-.15.25-.29,0,0,0,0,0,0s.19-.14.1-.2c.05,0,.09-.1.11-.17l0,0c0-.09,0-.1,0-.18s0,0,0,0,0-.07.07-.11v0s0-.06,0-.11a.11.11,0,0,1,.14-.06.07.07,0,0,1,0-.1,0,0,0,0,1,0,0c.1-.06.06-.16.15-.19h0l-.11.11s.09,0,.1.07c0-.07,0-.19.08-.23h0a.05.05,0,0,0,0,0l0,0s.07,0,.09-.07,0-.06-.07-.06,0,0,0,0v0h0l-.06.07s0-.08,0-.09l0-.09c.09,0,.18,0,.22,0s.15-.21.12-.33,0,0,.06,0,0,0,0,.05.11-.15.06-.21,0,.08.08,0v0c.21-.1.07-.38.32-.48h0c.21-.17.29-.47.52-.62.06,0,0-.08,0-.14l.05,0v-.1c0-.12.23-.07.24-.23h0s.08-.14.11-.11,0,0,0,0l0,0,0-.13c.08-.06.08.08.17,0s0-.17,0-.17a.06.06,0,0,1-.07,0l0,0h0c-.06-.06-.11-.12-.21-.07v0c-.18,0-.24,0-.29,0h0v0l-.06,0a0,0,0,0,1,0,0c-.06,0,0,0-.09,0s0,0,0,0l0,0s0,0,0,0-.12.11-.17.06h0c-.09.06,0,.06,0,.11l0,0-.09-.09v.06s0,0,0,0,0,0,0,.07-.15.09-.2,0,.07,0,0,.06-.07,0-.14,0,.06-.05,0-.07-.11,0-.15.06a0,0,0,0,1,0,0,0,0,0,0,1,0,0l0,0s0,.05,0,.08-.09,0-.14.09-.16,0-.24,0h0c0,.07-.06.09-.1.13a.07.07,0,0,1,0-.09l0,0a.09.09,0,0,1,0,.07V8.67c-.06,0-.1.13-.2.14s.07.06.08.1l0,0s0,0,0,0,0,0,0,0V8.86s0,0,0,.06,0,0,0,0,0,0,0,0a.16.16,0,0,1-.12,0s0,0,0,.06,0,0-.09,0-.06,0,0,.08,0,0,0,0-.14.1-.08.13h0c-.07.11-.23.11-.32.2v0c0,.06-.13.1-.14.17s-.06,0-.07,0,0,.06-.11.09,0,0,0-.05-.1,0-.13.1-.08,0-.1,0h.06l-.08.07,0-.06c-.16,0-.13.27-.3.24,0,.06.08,0,.09,0s-.17,0-.19,0,0,.13-.1.17a.07.07,0,0,1,0,.11c-.06,0-.12,0-.1-.06h0s0,0,0,0v0s-.11.07-.12,0,0,0,0,0-.1.09-.18.14,0,0,0,0,0,.07-.07.14,0-.07-.09,0,0,0,0-.06-.13.09-.17.11l0,0a.16.16,0,0,1,0,.06h0s0,0-.05,0,.07,0,.06.1-.05.09-.1.06-.05,0,0-.11a.1.1,0,0,1,0,0s0,0,0,0,0,.08-.06.16a0,0,0,0,0-.07,0s.05,0,0,.07,0,.07-.06.09l0,0s0,.05,0,.1,0,0,0,0-.13,0-.14.13,0,0-.08,0-.09,0-.12.13,0,0,0,.07l.07-.13v.11s0-.09.06-.1,0,0,0,.06,0,.11-.13.13l-.08-.07c-.11,0-.08.17-.18.26l0,0s0,.07-.06.11-.05,0-.08,0-.06.07,0,.13l-.08,0c-.08.07,0,.16-.07.23s-.06,0,0-.1,0,0,0,.06,0,.11-.06.11,0,0,0,.08h0s0,.06,0,.06c-.16,0-.17.24-.3.26a2.06,2.06,0,0,1-.11.2S18.95,12.6,19,12.59Zm4.55-1.71h0v0s0,0,0,0Zm1.14-2.72s0,0,0,0h0Zm-1.32.59h0Z"/><circle class="cls-1" cx="23.48" cy="10.82" r="0.01" transform="translate(3.71 27.48) rotate(-64.88)"/><polygon class="cls-1" points="22.59 9.09 22.59 9.09 22.59 9.09 22.59 9.09"/><path class="cls-1" d="M24.2,8.26s-.05,0,0-.05c-.13,0,0,0-.08.07Z"/><path class="cls-1" d="M23.82,8.33s0,0,0,0S23.82,8.34,23.82,8.33Z"/><path class="cls-1" d="M22,9.37s0,0,0,0Z"/><polygon class="cls-1" points="21.43 9.77 21.46 9.73 21.47 9.71 21.43 9.77"/><path class="cls-1" d="M19.07,12.31l.05,0S19.09,12.26,19.07,12.31Z"/><path class="cls-1" d="M18.22,13.66s.06,0,.06-.06S18.21,13.62,18.22,13.66Z"/><polygon class="cls-1" points="21.73 13.05 21.75 13 21.73 13.01 21.73 13.05"/></g></g></svg>