<svg xmlns="http://www.w3.org/2000/svg" xmlns:xlink="http://www.w3.org/1999/xlink" viewBox="0 0 120 84.44"><defs><style>.cls-1{fill:url(#linear-gradient);}.cls-2{fill:url(#linear-gradient-2);}.cls-3{fill:url(#linear-gradient-3);}.cls-4{fill:url(#linear-gradient-4);}.cls-5{fill:url(#linear-gradient-5);}.cls-6{fill:url(#linear-gradient-6);}.cls-7{fill:url(#linear-gradient-7);}.cls-8{fill:url(#linear-gradient-8);}.cls-9{fill:url(#linear-gradient-9);}.cls-10{fill:#595757;}.cls-11{fill:#f29600;}</style><linearGradient id="linear-gradient" x1="55.15" y1="46.45" x2="17.13" y2="46.45" gradientTransform="matrix(1, 0.04, -0.04, 1, 11.45, -17.44)" gradientUnits="userSpaceOnUse"><stop offset="0" stop-color="#f29600"/><stop offset="1" stop-color="#fccf2b"/></linearGradient><linearGradient id="linear-gradient-2" x1="34.13" y1="28.27" x2="34.13" y2="16.25" xlink:href="#linear-gradient"/><linearGradient id="linear-gradient-3" x1="18.53" y1="33.06" x2="18.53" y2="23.35" xlink:href="#linear-gradient"/><linearGradient id="linear-gradient-4" x1="7.91" y1="43.89" x2="7.91" y2="39.04" xlink:href="#linear-gradient"/><linearGradient id="linear-gradient-5" x1="5.37" y1="57.61" x2="5.37" y2="54.89" xlink:href="#linear-gradient"/><linearGradient id="linear-gradient-6" x1="64.16" y1="39.76" x2="64.16" y2="32.52" xlink:href="#linear-gradient"/><linearGradient id="linear-gradient-7" x1="52.73" y1="30.87" x2="52.73" y2="19.74" xlink:href="#linear-gradient"/><linearGradient id="linear-gradient-8" y1="43.65" x2="103.48" y2="43.65" gradientUnits="userSpaceOnUse"><stop offset="0" stop-color="#1eaa39"/><stop offset="1" stop-color="#dadf00"/></linearGradient><linearGradient id="linear-gradient-9" x1="14.8" y1="48.01" x2="120" y2="48.01" gradientUnits="userSpaceOnUse"><stop offset="0" stop-color="#00913a"/><stop offset="1" stop-color="#8dc21f"/></linearGradient></defs><title>資產 53logo</title><g id="圖層_2" data-name="圖層 2"><g id="圖層_1-2" data-name="圖層 1"><path class="cls-1" d="M64.83,32.79c-7.68.45-3.15-.13-11.28,1.11a102.48,102.48,0,0,0-19.15,4.78c-2.51.9-5.16,2-7.5,3a18.74,18.74,0,0,1-.29-4.08C27,26.52,36.36,18.2,47.5,18.21,60.51,18.23,64.83,32.79,64.83,32.79Z"/><path class="cls-2" d="M45.29,12.06c1.87-6.72,0-10.65-1-12.06C43.64,1.54,42.41,5.74,45.29,12.06Z"/><path class="cls-3" d="M25.51,6.43c.18,1.67,1.22,5.92,6.89,10C30.64,9.66,27,7.19,25.51,6.43Z"/><path class="cls-4" d="M23.33,26.9c-5-5-9.29-5.31-10.93-5.2C13.38,23.06,16.4,26.23,23.33,26.9Z"/><path class="cls-5" d="M12.71,40.26a18.11,18.11,0,0,0,8.12-1.83A21,21,0,0,0,16,37.65,12.31,12.31,0,0,0,8.74,39.4,10.71,10.71,0,0,0,12.71,40.26Z"/><path class="cls-6" d="M79.26,17.54c-1.72.18-5.93,1.21-10,6.89C76,22.68,78.49,19,79.26,17.54Z"/><path class="cls-7" d="M60.62,15.22c5-4.88,5.29-9.26,5.2-11C64.46,5.27,61.29,8.3,60.62,15.22Z"/><path class="cls-8" d="M55.26,31c17.74-2.09,34.55.41,48.22,6.28a133.8,133.8,0,0,0-44.47-2C36.15,37.9,15.73,45.87,0,57.07,12.3,43.63,32.11,33.69,55.26,31Z"/><path class="cls-9" d="M74.8,39.48c17.71,2.36,33.39,8.93,45.2,18A134.45,134.45,0,0,0,77.39,44.53c-22.83-3-44.56-.35-62.59,6.6,15.24-10,36.88-14.74,60-11.66Z"/><path class="cls-10" d="M20.1,71q4-2.75,8.45-10.16a1,1,0,0,1-.44-.72q0-.34,1.23-.4a1.67,1.67,0,0,1,1,.46q.64.56.64.93a4,4,0,0,1-1,1.51q3.12,1.91,5.07,3.24a15.26,15.26,0,0,0,1.95.62,3.82,3.82,0,0,1,1.65.9,3,3,0,0,1,.9,2q0,.54-1.27.54a10,10,0,0,1-2.77-.34,6.5,6.5,0,0,1-2-1.65,36.73,36.73,0,0,0-4.4-4.18Q27.4,66,25.79,67.93a9.78,9.78,0,0,0,3.6-.92c.42-.49.76-.74,1-.74a3.13,3.13,0,0,1,1.31.38,1,1,0,0,1,.5.93q0,.7-1.59,1.09a2.26,2.26,0,0,0-.7,1.05q1.93.48,1.93,1.25,0,.38-.52.64-.9.76-1.71,1.57l0,1.83q.85-.08,2.59-.34.82-.9,1.33-.9a3.44,3.44,0,0,1,1.75.8,1.21,1.21,0,0,1,.42.93.91.91,0,0,1-1,1q-2.33-.18-4.4-.18a14.5,14.5,0,0,0-2.69.3,17.14,17.14,0,0,1-2.65.52,2,2,0,0,1-.93-.26,1,1,0,0,1-.6-.84q0-.46.56-.54a7.16,7.16,0,0,0,.94-.12,8.68,8.68,0,0,0,1.89-1.13q-1.39-1.13-1.39-2.09,0-.66,2.86-1.85.06-.6.16-1.11a7.53,7.53,0,0,1-1.07.12,2.43,2.43,0,0,1-2-1,18.8,18.8,0,0,1-2.21,2.09,6.13,6.13,0,0,1-2.9,1.13q-.46,0-.46-.18T20.1,71Zm7.36,2.63a2.81,2.81,0,0,0,.66-.74l0-.78q-1.71.68-1.71.93T27.46,73.66Zm.22,1.53-.32-.3-.92.52Z"/><path class="cls-10" d="M44.68,60.89q0-.44.9-.52a2.06,2.06,0,0,1,1.55,1A3.54,3.54,0,0,1,47.95,63q0,.74-3.94,5.73.78.94.78,3.66a17.9,17.9,0,0,0,1-2.35,27.9,27.9,0,0,1-1.15,5.55q-.08,1.71-.78,1.71-.46,0-.78-.78a3.84,3.84,0,0,1-.32-1.31A9,9,0,0,1,43,73.4a12.1,12.1,0,0,0,.28-2.51,7.21,7.21,0,0,0-.12-1.35,7,7,0,0,1-2.37,1.35c-.19,0-.28-.07-.28-.22s.25-.47.76-1a43.81,43.81,0,0,0,4-7.74A3.12,3.12,0,0,1,44.68,60.89Zm6.48,1.43a1.22,1.22,0,0,1-.56-.86q0-.48,1.13-.54a1.63,1.63,0,0,1,1,.46q.87.8.88,1.17a8.06,8.06,0,0,1-1.25,2.86l2.31-.52a3.66,3.66,0,0,1,1.71-1,2.71,2.71,0,0,1,1.49.52,1.42,1.42,0,0,1,.82,1.13q0,1.05-2.27,1.05-3.12.22-4.85.52-1.43,2.59-2,3.52l.58.88A10.84,10.84,0,0,1,55,69.44a3,3,0,0,1,1-.32,2.23,2.23,0,0,1,1.39.82,2.49,2.49,0,0,1,.84,1.45q0,.54-.8.74a5.64,5.64,0,0,1-1.37,1.61,3.06,3.06,0,0,1,.58,1.15q0,.93-1.31.93t-3.3.1q-.74,0-.74-.6,0-1,1.31-1.41a5.31,5.31,0,0,0,2.84-3.16,8.6,8.6,0,0,0-2.35.42,27.88,27.88,0,0,1-2.77,1A11.2,11.2,0,0,0,51,74.89a3.68,3.68,0,0,1,.24,1.25q0,.8-.56.8-.78,0-1.25-1A4.63,4.63,0,0,1,49,74.17q0-.84,0-2.57A7.37,7.37,0,0,1,47.29,73a2.35,2.35,0,0,1-1.11.5q-.46,0-.46-.42a9.42,9.42,0,0,1,.46-1.57l0-1.89a4.4,4.4,0,0,0,1.17,1.43,28.31,28.31,0,0,0,1.91-3.4,10.36,10.36,0,0,1-3,.48,6.59,6.59,0,0,1-.78.14q-.2,0-.2-.3,0-.46.8-.84a18.45,18.45,0,0,1,3.78-1.09Q50.57,64.25,51.17,62.32Z"/><path class="cls-10" d="M63.68,62.4A1.6,1.6,0,0,1,65.09,64a4.55,4.55,0,0,1-.38,1.45q.54-.2,1.11-.46.12-1.69.16-3.3-.62-.4-.62-.8t.85-.48a3.22,3.22,0,0,1,1.63,1q.6.5.6.86A6.31,6.31,0,0,1,68,63.93q1,.3,1,1a.79.79,0,0,1-.42.82l-1.05.42c-.08.44-.15.9-.2,1.37a17.51,17.51,0,0,0,2.55-2.69,13.47,13.47,0,0,1-2.67,4.77q.18,4.1.18,5.09a4.71,4.71,0,0,1-.74,2.51.8.8,0,0,1-.7.34q-.5,0-.66-.76a16.7,16.7,0,0,1-2.35-3.14,1.91,1.91,0,0,1-1-1.41q0-.66,1-1.47.5-.44,2.76-2.13l.08-1.91a12.6,12.6,0,0,0-2.17,1,2.51,2.51,0,0,1-1.11.44q-.62,0-.85-1.39a1.18,1.18,0,0,1,.6-.9,7.66,7.66,0,0,0,1.23-2.37,3.91,3.91,0,0,1-.16-.8Q63.34,62.4,63.68,62.4Zm2,8.55L64,72.35q-.62.5-.62.74a3.07,3.07,0,0,0,2.35,1.41Zm6.35,1.61a20.55,20.55,0,0,0-3.26-2.19q-.4-.18-.4-.44t.58-.26a14.17,14.17,0,0,1,4.1,1.05,16.8,16.8,0,0,0,1-2.59,1.15,1.15,0,0,1-.5-.86,2.78,2.78,0,0,1,.34-1,9.85,9.85,0,0,0-2.27.91,2.48,2.48,0,0,1-1.31.46q-.48,0-.66-1,0-.52.85-1.11a14.93,14.93,0,0,0,1.83-4q-.62-.44-.62-.8t.9-.52a1.27,1.27,0,0,1,1,.42q1.17,1,1.17,1.53t-2.19,3.08a17.29,17.29,0,0,0,2.45-.9q.7-1.05,1.19-1.05,2.07,0,2.07,1.25,0,.64-1,.86l-1.23.34q-1.25.52-1.25,1.05,1.31,1,1.31,1.53a14,14,0,0,1-1.25,3,9.26,9.26,0,0,1,3.68,2.39,3.74,3.74,0,0,1,1,2.21q0,1.21-.9,1.21a2.53,2.53,0,0,1-1.63-.8q-1.63-1.43-3.46-2.8a6.23,6.23,0,0,1-5.13,2.21c-.42,0-.64-.09-.64-.28s.12-.28.36-.36A7.44,7.44,0,0,0,72.05,72.56Z"/><path class="cls-10" d="M84.64,70.4a17.61,17.61,0,0,0,.26-2.82,3.71,3.71,0,0,1-.86.18,2.62,2.62,0,0,1-1.61-.64q-.56-.52-.56-.78t.36-.34a1.67,1.67,0,0,1,.56.18A7.38,7.38,0,0,0,85,65V62.34q-1-.66-1-.9c0-.15.11-.32.34-.52a1.25,1.25,0,0,1,.74-.24,3.06,3.06,0,0,1,1.53.72q.8.58.8,1A4.89,4.89,0,0,1,87,63.69q1.31,1.21,1.31,1.63,0,.92-1.65,1.59-.16,1.27-.34,2.57a22.29,22.29,0,0,0,3.16-3.94l-.52,1.67a2.56,2.56,0,0,0,1.63-.82,2.87,2.87,0,0,1-.18-1,17.47,17.47,0,0,1,.14-1.91q.08-.91.08-2a2.16,2.16,0,0,1-.42-.76c0-.15.14-.22.42-.22a.92.92,0,0,1,.74.42,4.48,4.48,0,0,1,2.76-1.13,1.9,1.9,0,0,1,.82-.34,2.1,2.1,0,0,1,1.31.62,1.37,1.37,0,0,1,.58,1,3.1,3.1,0,0,1-.44,1.23q-.16,1.19-.42,2.53.76-.76.9-.76a2.18,2.18,0,0,1,.88.24.82.82,0,0,1,.52.72q0,.48-1.39,1a20.31,20.31,0,0,0-3.38,2.61q1.47-.38,3.16-.66a3.85,3.85,0,0,1,1.13-.34,2,2,0,0,1,1.17.62q.74.64.74,1.11a1.93,1.93,0,0,1-.44,1,13.6,13.6,0,0,1-3.42,6.48,3.73,3.73,0,0,1-1.75.86.94.94,0,0,1-1-.84,8.42,8.42,0,0,1-1.37-1.27,15.49,15.49,0,0,1-2.63.8l-.12-.2A18.4,18.4,0,0,0,91,74.67a6.1,6.1,0,0,1-.42-.84,3.83,3.83,0,0,1-1.37.76q-.54,0-.54-.6a2.67,2.67,0,0,1,.58-1.21.84.84,0,0,1,.56-.34,6.75,6.75,0,0,0,2.33-2.17,16.75,16.75,0,0,0-1.81,1,4.12,4.12,0,0,1-1.07.64q-.68,0-.68-.52a2.71,2.71,0,0,1,1-1.67,1.47,1.47,0,0,1,.82-.22,33.71,33.71,0,0,0,3.48-2.61,25.24,25.24,0,0,0-3.06,1.27,6.57,6.57,0,0,1-1.95.88.65.65,0,0,1-.56-.24,30.48,30.48,0,0,1-2.19,3q-2.59,2.61-3.28,2.61-.36,0-.84-.74a2.25,2.25,0,0,1-.4-.93q.14-1.05.46-1.05a1.38,1.38,0,0,1,.8.36A3.3,3.3,0,0,0,84.64,70.4Zm6.8,3.86a23.49,23.49,0,0,0,2.92-3.92,3.06,3.06,0,0,0-1.43.78q-1,1.27-2.15,2.55A4.28,4.28,0,0,0,91.45,74.25ZM92,62.94a9.58,9.58,0,0,1,1.83-.58,2.66,2.66,0,0,1,.6.08l.06-1.51q-1.29.24-2.55.36l-.22.18A3,3,0,0,1,92,62.94ZM94,65.68q.2-.9.34-2l-1,.54q-.82.78-1.57,1.63l-.08.54Zm-1.11-1.85h-1l-.08,1.29A4,4,0,0,0,92.92,63.83Zm1.27,11.36A11,11,0,0,0,97.36,69,9.8,9.8,0,0,0,96,69.3a1.4,1.4,0,0,1,.34.7q0,.76-3.64,4.87A5,5,0,0,0,94.19,75.19ZM94,69.66l-.36.08-.12.24Z"/><path class="cls-10" d="M23.35,80.61H24l.38,1.47.8-1.47h.27l.38,1.47.8-1.47h.72l-1.5,2.75h-.33l-.37-1.45-.78,1.45H24Z"/><path class="cls-10" d="M28.51,80.61h.65l.38,1.47.8-1.47h.27L31,82.09l.8-1.47h.72L31,83.36h-.33l-.37-1.45-.78,1.45H29.2Z"/><path class="cls-10" d="M33.66,80.61h.65l.38,1.47.8-1.47h.27l.38,1.47.8-1.47h.72l-1.5,2.75h-.33l-.37-1.45-.78,1.45h-.32Z"/><path class="cls-10" d="M39.21,82.59a.41.41,0,0,1,.3.12.43.43,0,1,1-.3-.12Z"/><path class="cls-11" d="M41.71,79.55h.67l-.52,3.81h-.67Z"/><path class="cls-11" d="M45.13,80.54a1.32,1.32,0,0,1,.67.17,1.18,1.18,0,0,1,.47.48,1.45,1.45,0,0,1,.17.7A1.48,1.48,0,0,1,46,83a1.55,1.55,0,0,1-1.13.45,1.25,1.25,0,0,1-.93-.36,1.27,1.27,0,0,1-.35-.93,1.59,1.59,0,0,1,1.57-1.61Zm0,.64a.74.74,0,0,0-.64.3,1.06,1.06,0,0,0-.22.64.68.68,0,0,0,.18.5.63.63,0,0,0,.48.19.77.77,0,0,0,.65-.29,1,1,0,0,0,.22-.66.65.65,0,0,0-.68-.68Z"/><path class="cls-11" d="M47.88,80.61h.66L49,82.14l.88-1.53h.74L49,83.36h-.33Z"/><path class="cls-11" d="M53.83,82.56l.59.31a1.38,1.38,0,0,1-.53.41,1.73,1.73,0,0,1-.73.15,1.36,1.36,0,0,1-1-.35,1.25,1.25,0,0,1-.36-.94A1.56,1.56,0,0,1,52.26,81a1.48,1.48,0,0,1,1.1-.46,1.38,1.38,0,0,1,.69.17,1.2,1.2,0,0,1,.48.49,1.45,1.45,0,0,1,.18.7,1.72,1.72,0,0,1,0,.28H52.47a.64.64,0,0,0,.19.46.68.68,0,0,0,.49.17A1,1,0,0,0,53.83,82.56Zm.17-.87a.67.67,0,0,0-.68-.51.78.78,0,0,0-.45.13.83.83,0,0,0-.3.38Z"/><path class="cls-11" d="M56.37,81.69h1.36l-.08.61H56.29Z"/><path class="cls-11" d="M61.34,82.56l.59.31a1.38,1.38,0,0,1-.53.41,1.73,1.73,0,0,1-.73.15,1.36,1.36,0,0,1-1-.35,1.25,1.25,0,0,1-.36-.94A1.56,1.56,0,0,1,59.78,81a1.48,1.48,0,0,1,1.1-.46,1.38,1.38,0,0,1,.69.17,1.2,1.2,0,0,1,.48.49,1.46,1.46,0,0,1,.17.7,1.78,1.78,0,0,1,0,.28H60a.64.64,0,0,0,.19.46.68.68,0,0,0,.49.17A1,1,0,0,0,61.34,82.56Zm.17-.87a.71.71,0,0,0-.25-.38.7.7,0,0,0-.43-.13.79.79,0,0,0-.45.13.83.83,0,0,0-.3.38Z"/><path class="cls-11" d="M66,80.61h.68l-.31,2.21a3.74,3.74,0,0,1-.18.86,1.24,1.24,0,0,1-.5.54,1.88,1.88,0,0,1-1.65,0,1.19,1.19,0,0,1-.49-.43l.59-.3a.92.92,0,0,0,.69.28,1,1,0,0,0,.43-.09.69.69,0,0,0,.28-.24,1.08,1.08,0,0,0,.14-.45,1.26,1.26,0,0,1-.85.33,1.19,1.19,0,0,1-.61-.16,1.15,1.15,0,0,1-.44-.46,1.36,1.36,0,0,1-.16-.66,1.49,1.49,0,0,1,.21-.76,1.55,1.55,0,0,1,.57-.57,1.47,1.47,0,0,1,.75-.21,1,1,0,0,1,.43.09,1.18,1.18,0,0,1,.38.31Zm-.83.57a.88.88,0,0,0-.9.89.65.65,0,0,0,.19.49.72.72,0,0,0,.52.18.91.91,0,0,0,.45-.11.82.82,0,0,0,.33-.32.9.9,0,0,0,.12-.45.65.65,0,0,0-.2-.48A.7.7,0,0,0,65.21,81.18Z"/><path class="cls-11" d="M70.48,80.61h.68l-.31,2.21a3.83,3.83,0,0,1-.18.86,1.23,1.23,0,0,1-.5.54,1.88,1.88,0,0,1-1.65,0,1.2,1.2,0,0,1-.49-.43l.59-.3a.92.92,0,0,0,.69.28,1,1,0,0,0,.43-.09.7.7,0,0,0,.28-.24,1.08,1.08,0,0,0,.14-.45,1.26,1.26,0,0,1-.85.33,1.19,1.19,0,0,1-.61-.16,1.16,1.16,0,0,1-.44-.46,1.37,1.37,0,0,1-.16-.66,1.49,1.49,0,0,1,.21-.76,1.55,1.55,0,0,1,.57-.57,1.48,1.48,0,0,1,.75-.21,1,1,0,0,1,.43.09,1.17,1.17,0,0,1,.38.31Zm-.83.57a.88.88,0,0,0-.9.89.65.65,0,0,0,.19.49.71.71,0,0,0,.52.18.92.92,0,0,0,.45-.11.84.84,0,0,0,.33-.32.91.91,0,0,0,.12-.45.65.65,0,0,0-.2-.48A.7.7,0,0,0,69.65,81.18Z"/><path class="cls-11" d="M74.36,81l-.32.52a.92.92,0,0,0-.26-.27.48.48,0,0,0-.26-.09.24.24,0,0,0-.15.05.14.14,0,0,0-.06.11.19.19,0,0,0,.05.12,1.85,1.85,0,0,0,.29.24,2,2,0,0,1,.51.48.81.81,0,0,1,.12.43.85.85,0,0,1-.25.58.94.94,0,0,1-.73.27,1.12,1.12,0,0,1-.5-.11,1.86,1.86,0,0,1-.5-.41l.42-.49a.79.79,0,0,0,.62.37.33.33,0,0,0,.21-.06.19.19,0,0,0,.08-.15.23.23,0,0,0-.06-.15,2.1,2.1,0,0,0-.33-.27,2,2,0,0,1-.43-.38.77.77,0,0,1-.17-.47.7.7,0,0,1,.26-.56.94.94,0,0,1,.62-.22,1,1,0,0,1,.48.12A1,1,0,0,1,74.36,81Z"/><path class="cls-10" d="M76.18,82.59a.42.42,0,1,1-.3.12A.41.41,0,0,1,76.18,82.59Z"/><path class="cls-10" d="M81.12,81.18l-.57.31a.79.79,0,0,0-.65-.31,1,1,0,0,0-.49.12.87.87,0,0,0-.34.34.94.94,0,0,0-.13.47.68.68,0,0,0,.2.51.76.76,0,0,0,.55.19.89.89,0,0,0,.74-.33l.53.38a1.56,1.56,0,0,1-.56.42,1.79,1.79,0,0,1-.75.15,1.4,1.4,0,0,1-1-.35,1.23,1.23,0,0,1-.37-.93,1.58,1.58,0,0,1,1.64-1.6A1.33,1.33,0,0,1,81.12,81.18Z"/><path class="cls-10" d="M84.18,80.54a1.32,1.32,0,0,1,.67.17,1.18,1.18,0,0,1,.47.48,1.45,1.45,0,0,1,.17.7A1.48,1.48,0,0,1,85,83a1.55,1.55,0,0,1-1.13.45,1.25,1.25,0,0,1-.93-.36,1.27,1.27,0,0,1-.35-.93,1.59,1.59,0,0,1,1.58-1.61Zm0,.64a.74.74,0,0,0-.64.3,1.06,1.06,0,0,0-.22.64.69.69,0,0,0,.18.5.64.64,0,0,0,.48.19.77.77,0,0,0,.65-.29,1,1,0,0,0,.22-.66.67.67,0,0,0-.19-.49A.66.66,0,0,0,84.13,81.18Z"/><path class="cls-10" d="M87.27,80.61h.68l0,.3a1.13,1.13,0,0,1,.82-.37.94.94,0,0,1,.34.06.77.77,0,0,1,.26.16.81.81,0,0,1,.17.27,1.29,1.29,0,0,1,.44-.37,1.17,1.17,0,0,1,.53-.13.77.77,0,0,1,.57.23.82.82,0,0,1,.23.6,2.63,2.63,0,0,1,0,.35L91,83.36h-.67L90.55,82a3.6,3.6,0,0,0,0-.38.41.41,0,0,0-.1-.3.37.37,0,0,0-.28-.1.61.61,0,0,0-.35.12.78.78,0,0,0-.27.33,2.67,2.67,0,0,0-.16.7l-.14,1h-.67l.2-1.5a2.3,2.3,0,0,0,0-.31.39.39,0,0,0-.1-.29.37.37,0,0,0-.28-.11.61.61,0,0,0-.33.11.76.76,0,0,0-.27.31,2,2,0,0,0-.15.59l-.15,1.19h-.67Z"/></g></g></svg>